<?xml version="1.0" encoding="UTF-8" standalone="no"?>
<!-- Created with Inkscape (http://www.inkscape.org/) -->

<svg
   width="512"
   height="512"
   viewBox="0 0 512 512"
   version="1.1"
   id="svg1"
   inkscape:version="1.4.3 (0d15f75, 2025-12-25)"
   sodipodi:docname="logo.svg"
   xmlns:inkscape="http://www.inkscape.org/namespaces/inkscape"
   xmlns:sodipodi="http://sodipodi.sourceforge.net/DTD/sodipodi-0.dtd"
   xmlns="http://www.w3.org/2000/svg"
   xmlns:svg="http://www.w3.org/2000/svg">
  <sodipodi:namedview
     id="namedview1"
     pagecolor="#ffffff"
     bordercolor="#000000"
     borderopacity="0.25"
     inkscape:showpageshadow="2"
     inkscape:pageopacity="0.0"
     inkscape:pagecheckerboard="0"
     inkscape:deskcolor="#d1d1d1"
     inkscape:document-units="px"
     inkscape:zoom="1"
     inkscape:cx="282"
     inkscape:cy="148.5"
     inkscape:window-width="2560"
     inkscape:window-height="1369"
     inkscape:window-x="1592"
     inkscape:window-y="-8"
     inkscape:window-maximized="1"
     inkscape:current-layer="layer1" />
  <defs
     id="defs1">
    <filter
       id="mask-powermask-path-effect3_inverse"
       inkscape:label="filtermask-powermask-path-effect3"
       style="color-interpolation-filters:sRGB"
       height="100"
       width="100"
       x="-50"
       y="-50">
      <feColorMatrix
         id="mask-powermask-path-effect3_primitive1"
         values="1"
         type="saturate"
         result="fbSourceGraphic" />
      <feColorMatrix
         id="mask-powermask-path-effect3_primitive2"
         values="-1 0 0 0 1 0 -1 0 0 1 0 0 -1 0 1 0 0 0 1 0 "
         in="fbSourceGraphic" />
    </filter>
    <filter
       id="mask-powermask-path-effect10_inverse"
       inkscape:label="filtermask-powermask-path-effect10"
       style="color-interpolation-filters:sRGB"
       height="100"
       width="100"
       x="-50"
       y="-50">
      <feColorMatrix
         id="mask-powermask-path-effect10_primitive1"
         values="1"
         type="saturate"
         result="fbSourceGraphic" />
      <feColorMatrix
         id="mask-powermask-path-effect10_primitive2"
         values="-1 0 0 0 1 0 -1 0 0 1 0 0 -1 0 1 0 0 0 1 0 "
         in="fbSourceGraphic" />
    </filter>
    <filter
       id="mask-powermask-path-effect11_inverse"
       inkscape:label="filtermask-powermask-path-effect11"
       style="color-interpolation-filters:sRGB"
       height="100"
       width="100"
       x="-50"
       y="-50">
      <feColorMatrix
         id="mask-powermask-path-effect11_primitive1"
         values="1"
         type="saturate"
         result="fbSourceGraphic" />
      <feColorMatrix
         id="mask-powermask-path-effect11_primitive2"
         values="-1 0 0 0 1 0 -1 0 0 1 0 0 -1 0 1 0 0 0 1 0 "
         in="fbSourceGraphic" />
    </filter>
  </defs>
  <g
     inkscape:label="Layer 1"
     inkscape:groupmode="layer"
     id="layer1">
    <path
       d="M 69.410072,356.34216 V 160.34192 h 30.666708 l 45.60005,140.80018 q -0.8,-7.73335 -1.86667,-15.46669 -0.8,-7.73334 -1.33333,-15.46669 -0.53334,-8.00001 -0.8,-15.73335 0,-8.00001 0,-15.73335 v -78.4001 h 29.60003 v 196.00024 h -30.6667 L 95.010103,215.54199 q 0.800001,7.73334 1.600002,15.46669 1.066668,7.73334 1.600002,15.73335 0.533334,7.73334 0.533334,15.73335 0.266667,7.73334 0.266667,15.46669 v 78.40009 z m 183.466888,2.13334 q -7.20001,0 -14.66668,-1.6 -7.20001,-1.33334 -13.60002,-4.80001 -6.13334,-3.73334 -11.20001,-9.33334 -4.80001,-5.86668 -7.73334,-12.53335 -2.93334,-6.66668 -4.00001,-13.86669 -1.06667,-7.46667 -1.06667,-14.66668 v -86.66677 q 0,-7.20001 1.06667,-14.40002 1.06667,-7.46668 4.00001,-14.13335 2.93333,-6.66668 7.73334,-12.26668 5.06667,-5.86668 11.20001,-9.33335 6.40001,-3.73334 13.60002,-5.06667 7.46667,-1.6 14.66668,-1.6 6.93334,0 13.60002,1.33333 6.93334,1.06667 13.06668,4.26667 6.13334,2.93334 10.93335,8.00001 5.06667,4.80001 8.26668,10.93335 3.2,5.86667 4.8,12.80002 1.6,6.66667 1.6,13.60001 v 1.60001 h -29.60003 v -0.80001 q 0,-4.8 -1.33334,-9.60001 -1.33333,-4.8 -4.26667,-8.53334 -2.93334,-4.00001 -7.73334,-5.86667 -4.53334,-2.13334 -9.33335,-2.13334 -3.73334,0 -7.20001,1.06667 -3.46667,1.06667 -6.13334,3.46667 -2.66667,2.4 -4.53334,5.6 -1.86666,3.20001 -2.93333,6.66668 -1.06667,3.46667 -1.6,7.20001 -0.26667,3.46667 -0.26667,7.20001 v 86.66677 q 0,3.73334 0.26667,7.46668 0.53333,3.46667 1.6,6.93334 1.06667,3.46667 2.93333,6.66667 1.86667,3.20001 4.53334,5.60001 2.66667,2.4 6.13334,3.46667 3.46667,1.06667 7.20001,1.06667 4.80001,0 9.33335,-1.86667 4.8,-2.13334 7.73334,-5.86667 2.93334,-4.00001 4.26667,-8.80002 1.33334,-4.8 1.33334,-9.60001 v -0.8 h 29.60003 v 1.6 q 0,6.93335 -1.6,13.86669 -1.6,6.66667 -4.8,12.80001 -3.20001,5.86668 -8.26668,10.93335 -4.80001,4.80001 -10.93335,8.00001 -6.13334,2.93334 -13.06668,4 -6.66668,1.33334 -13.60002,1.33334 z m 134.1335,0 q -7.20001,0 -14.40002,-1.6 -7.20001,-1.33334 -13.33335,-5.06668 -6.13334,-3.73333 -10.93334,-9.33334 -4.53334,-5.86667 -7.46668,-12.53335 -2.66667,-6.66667 -3.73334,-13.86668 -1.06667,-7.20001 -1.06667,-14.40002 V 160.34192 h 29.60004 v 141.33351 q 0,3.46667 0.26667,7.20001 0.53333,3.46667 1.33333,6.93334 1.06667,3.2 2.66667,6.40001 1.6,3.2 4.00001,5.86667 2.66667,2.4 6.13334,3.73334 3.46667,1.06667 6.93334,1.06667 3.46667,0 6.93334,-1.06667 3.46667,-1.33334 5.86668,-3.73334 2.66667,-2.66667 4.26667,-5.86667 1.6,-3.20001 2.4,-6.40001 1.06667,-3.46667 1.33334,-6.93334 0.53333,-3.73334 0.53333,-7.20001 V 160.34192 h 29.60004 v 141.33351 q 0,7.20001 -1.06667,14.40002 -1.06667,7.20001 -4.00001,13.86668 -2.66667,6.66668 -7.46667,12.53335 -4.53334,5.60001 -10.66668,9.33334 -6.13334,3.73334 -13.33335,5.06668 -7.20001,1.6 -14.40002,1.6 z"
       id="text1"
       mask="none"
       style="font-weight:bold;font-size:266.667px;font-family:Iosevka;-inkscape-font-specification:'Iosevka, Bold'"
       aria-label="NCU" />
    <path
       d="M 48.275812,368.66412 V 153.05449 H 82.01066 l 50.16223,154.88693 q -0.88004,-8.50705 -2.05342,-17.01409 -0.88004,-8.50705 -1.46673,-17.0141 -0.5867,-8.80039 -0.88004,-17.30744 0,-8.80039 0,-17.30744 V 153.0545 h 32.56145 V 368.66413 H 126.59931 L 76.43707,213.7772 q 0.88004,8.50705 1.76008,17.0141 1.17338,8.50704 1.76008,17.30744 0.58669,8.50704 0.58669,17.30743 0.29335,8.50705 0.29335,17.0141 v 86.24385 z m 201.822348,2.34678 q -7.92035,0 -16.13405,-1.76008 -7.92035,-1.46674 -14.96067,-5.28024 -6.74697,-4.10685 -12.32055,-10.26712 -5.28024,-6.45363 -8.50704,-13.78729 -3.22682,-7.33366 -4.4002,-15.25402 -1.17339,-8.21369 -1.17339,-16.13405 v -95.33759 q 0,-7.92035 1.17339,-15.84071 1.17338,-8.2137 4.4002,-15.54736 3.2268,-7.33367 8.50704,-13.49393 5.57358,-6.45363 12.32055,-10.26713 7.04032,-4.10686 14.96067,-5.57358 8.2137,-1.76008 16.13405,-1.76008 7.62701,0 14.96067,1.46673 7.62701,1.17338 14.37398,4.69354 6.74696,3.22681 12.0272,8.80039 5.57358,5.28024 9.09375,12.02721 3.52015,6.45362 5.28023,14.08063 1.76007,7.33366 1.76007,14.96066 v 1.76009 h -32.56145 v -0.88005 q 0,-5.28023 -1.46673,-10.56047 -1.46673,-5.28023 -4.69354,-9.38708 -3.22682,-4.4002 -8.50705,-6.45362 -4.98689,-2.34677 -10.26713,-2.34677 -4.10685,0 -7.92035,1.17339 -3.81351,1.17338 -6.74697,3.8135 -2.93347,2.64011 -4.98689,6.16027 -2.05342,3.52016 -3.22681,7.33366 -1.17338,3.81351 -1.76007,7.92036 -0.29335,3.8135 -0.29335,7.92035 v 95.33759 q 0,4.10686 0.29335,8.21371 0.58669,3.8135 1.76007,7.627 1.17339,3.81351 3.22681,7.33366 2.05342,3.52016 4.98689,6.16028 2.93346,2.64011 6.74697,3.8135 3.8135,1.17339 7.92035,1.17339 5.28024,0 10.26713,-2.05343 5.28023,-2.34677 8.50705,-6.45361 3.22681,-4.40021 4.69354,-9.68045 1.46673,-5.28023 1.46673,-10.56047 v -0.88004 h 32.56145 v 1.76008 q 0,7.62702 -1.76007,15.25402 -1.76008,7.33366 -5.28023,14.08063 -3.52017,6.45362 -9.09375,12.0272 -5.28024,5.28024 -12.0272,8.8004 -6.74697,3.22681 -14.37398,4.40019 -7.33366,1.46674 -14.96067,1.46674 z m 147.55326,0 q -7.92035,0 -15.84071,-1.76008 -7.92035,-1.46674 -14.66732,-5.57359 -6.74697,-4.10684 -12.0272,-10.26712 -4.98689,-6.45362 -8.2137,-13.78728 -2.93347,-7.33366 -4.10685,-15.25402 -1.17339,-7.92035 -1.17339,-15.84071 V 153.05449 h 32.56146 V 308.5281 q 0,3.81351 0.29335,7.92036 0.58669,3.81351 1.46672,7.627 1.17339,3.52016 2.93347,7.04032 1.76008,3.52015 4.4002,6.45362 2.93347,2.64011 6.74697,4.10685 3.8135,1.17339 7.627,1.17339 3.81351,0 7.62701,-1.17339 3.8135,-1.46674 6.45363,-4.10685 2.93346,-2.93347 4.69354,-6.45362 1.76008,-3.52016 2.64011,-7.04032 1.17339,-3.8135 1.46674,-7.627 0.58669,-4.10685 0.58669,-7.92036 V 153.05449 H 453.6806 V 308.5281 q 0,7.92036 -1.17339,15.84071 -1.17339,7.92036 -4.4002,15.25402 -2.93347,7.33366 -8.21369,13.78728 -4.9869,6.16028 -11.73386,10.26712 -6.74697,4.10685 -14.66733,5.57359 -7.92035,1.76008 -15.84071,1.76008 z"
       id="text1-6"
       mask="none"
       style="font-weight:bold;font-size:266.667px;font-family:Iosevka;-inkscape-font-specification:'Iosevka, Bold';stroke-width:1.10005"
       aria-label="NCU" />
  </g>
</svg>
