%TF.GenerationSoftware,KiCad,Pcbnew,9.0.7*%
%TF.CreationDate,2026-03-18T19:39:04+00:00*%
%TF.ProjectId,NCU,4e43552e-6b69-4636-9164-5f7063625858,rev?*%
%TF.SameCoordinates,Original*%
%TF.FileFunction,Legend,Bot*%
%TF.FilePolarity,Positive*%
%FSLAX46Y46*%
G04 Gerber Fmt 4.6, Leading zero omitted, Abs format (unit mm)*
G04 Created by KiCad (PCBNEW 9.0.7) date 2026-03-18 19:39:04*
%MOMM*%
%LPD*%
G01*
G04 APERTURE LIST*
%ADD10C,0.150000*%
%ADD11C,0.120000*%
G04 APERTURE END LIST*
D10*
X105483333Y-154454819D02*
X105483333Y-155169104D01*
X105483333Y-155169104D02*
X105530952Y-155311961D01*
X105530952Y-155311961D02*
X105626190Y-155407200D01*
X105626190Y-155407200D02*
X105769047Y-155454819D01*
X105769047Y-155454819D02*
X105864285Y-155454819D01*
X105007142Y-155454819D02*
X105007142Y-154454819D01*
X105007142Y-154454819D02*
X104626190Y-154454819D01*
X104626190Y-154454819D02*
X104530952Y-154502438D01*
X104530952Y-154502438D02*
X104483333Y-154550057D01*
X104483333Y-154550057D02*
X104435714Y-154645295D01*
X104435714Y-154645295D02*
X104435714Y-154788152D01*
X104435714Y-154788152D02*
X104483333Y-154883390D01*
X104483333Y-154883390D02*
X104530952Y-154931009D01*
X104530952Y-154931009D02*
X104626190Y-154978628D01*
X104626190Y-154978628D02*
X105007142Y-154978628D01*
X104102380Y-154454819D02*
X103435714Y-154454819D01*
X103435714Y-154454819D02*
X103864285Y-155454819D01*
X53983333Y-66504819D02*
X53983333Y-67219104D01*
X53983333Y-67219104D02*
X54030952Y-67361961D01*
X54030952Y-67361961D02*
X54126190Y-67457200D01*
X54126190Y-67457200D02*
X54269047Y-67504819D01*
X54269047Y-67504819D02*
X54364285Y-67504819D01*
X53507142Y-67504819D02*
X53507142Y-66504819D01*
X53507142Y-66504819D02*
X53126190Y-66504819D01*
X53126190Y-66504819D02*
X53030952Y-66552438D01*
X53030952Y-66552438D02*
X52983333Y-66600057D01*
X52983333Y-66600057D02*
X52935714Y-66695295D01*
X52935714Y-66695295D02*
X52935714Y-66838152D01*
X52935714Y-66838152D02*
X52983333Y-66933390D01*
X52983333Y-66933390D02*
X53030952Y-66981009D01*
X53030952Y-66981009D02*
X53126190Y-67028628D01*
X53126190Y-67028628D02*
X53507142Y-67028628D01*
X51983333Y-67504819D02*
X52554761Y-67504819D01*
X52269047Y-67504819D02*
X52269047Y-66504819D01*
X52269047Y-66504819D02*
X52364285Y-66647676D01*
X52364285Y-66647676D02*
X52459523Y-66742914D01*
X52459523Y-66742914D02*
X52554761Y-66790533D01*
X53983333Y-59554819D02*
X53983333Y-60269104D01*
X53983333Y-60269104D02*
X54030952Y-60411961D01*
X54030952Y-60411961D02*
X54126190Y-60507200D01*
X54126190Y-60507200D02*
X54269047Y-60554819D01*
X54269047Y-60554819D02*
X54364285Y-60554819D01*
X53507142Y-60554819D02*
X53507142Y-59554819D01*
X53507142Y-59554819D02*
X53126190Y-59554819D01*
X53126190Y-59554819D02*
X53030952Y-59602438D01*
X53030952Y-59602438D02*
X52983333Y-59650057D01*
X52983333Y-59650057D02*
X52935714Y-59745295D01*
X52935714Y-59745295D02*
X52935714Y-59888152D01*
X52935714Y-59888152D02*
X52983333Y-59983390D01*
X52983333Y-59983390D02*
X53030952Y-60031009D01*
X53030952Y-60031009D02*
X53126190Y-60078628D01*
X53126190Y-60078628D02*
X53507142Y-60078628D01*
X52078571Y-59888152D02*
X52078571Y-60554819D01*
X52316666Y-59507200D02*
X52554761Y-60221485D01*
X52554761Y-60221485D02*
X51935714Y-60221485D01*
X124859523Y-118004819D02*
X124859523Y-118719104D01*
X124859523Y-118719104D02*
X124907142Y-118861961D01*
X124907142Y-118861961D02*
X125002380Y-118957200D01*
X125002380Y-118957200D02*
X125145237Y-119004819D01*
X125145237Y-119004819D02*
X125240475Y-119004819D01*
X124383332Y-119004819D02*
X124383332Y-118004819D01*
X124383332Y-118004819D02*
X124002380Y-118004819D01*
X124002380Y-118004819D02*
X123907142Y-118052438D01*
X123907142Y-118052438D02*
X123859523Y-118100057D01*
X123859523Y-118100057D02*
X123811904Y-118195295D01*
X123811904Y-118195295D02*
X123811904Y-118338152D01*
X123811904Y-118338152D02*
X123859523Y-118433390D01*
X123859523Y-118433390D02*
X123907142Y-118481009D01*
X123907142Y-118481009D02*
X124002380Y-118528628D01*
X124002380Y-118528628D02*
X124383332Y-118528628D01*
X122859523Y-119004819D02*
X123430951Y-119004819D01*
X123145237Y-119004819D02*
X123145237Y-118004819D01*
X123145237Y-118004819D02*
X123240475Y-118147676D01*
X123240475Y-118147676D02*
X123335713Y-118242914D01*
X123335713Y-118242914D02*
X123430951Y-118290533D01*
X121907142Y-119004819D02*
X122478570Y-119004819D01*
X122192856Y-119004819D02*
X122192856Y-118004819D01*
X122192856Y-118004819D02*
X122288094Y-118147676D01*
X122288094Y-118147676D02*
X122383332Y-118242914D01*
X122383332Y-118242914D02*
X122478570Y-118290533D01*
X102333333Y-154504819D02*
X102333333Y-155219104D01*
X102333333Y-155219104D02*
X102380952Y-155361961D01*
X102380952Y-155361961D02*
X102476190Y-155457200D01*
X102476190Y-155457200D02*
X102619047Y-155504819D01*
X102619047Y-155504819D02*
X102714285Y-155504819D01*
X101857142Y-155504819D02*
X101857142Y-154504819D01*
X101857142Y-154504819D02*
X101476190Y-154504819D01*
X101476190Y-154504819D02*
X101380952Y-154552438D01*
X101380952Y-154552438D02*
X101333333Y-154600057D01*
X101333333Y-154600057D02*
X101285714Y-154695295D01*
X101285714Y-154695295D02*
X101285714Y-154838152D01*
X101285714Y-154838152D02*
X101333333Y-154933390D01*
X101333333Y-154933390D02*
X101380952Y-154981009D01*
X101380952Y-154981009D02*
X101476190Y-155028628D01*
X101476190Y-155028628D02*
X101857142Y-155028628D01*
X100428571Y-154504819D02*
X100619047Y-154504819D01*
X100619047Y-154504819D02*
X100714285Y-154552438D01*
X100714285Y-154552438D02*
X100761904Y-154600057D01*
X100761904Y-154600057D02*
X100857142Y-154742914D01*
X100857142Y-154742914D02*
X100904761Y-154933390D01*
X100904761Y-154933390D02*
X100904761Y-155314342D01*
X100904761Y-155314342D02*
X100857142Y-155409580D01*
X100857142Y-155409580D02*
X100809523Y-155457200D01*
X100809523Y-155457200D02*
X100714285Y-155504819D01*
X100714285Y-155504819D02*
X100523809Y-155504819D01*
X100523809Y-155504819D02*
X100428571Y-155457200D01*
X100428571Y-155457200D02*
X100380952Y-155409580D01*
X100380952Y-155409580D02*
X100333333Y-155314342D01*
X100333333Y-155314342D02*
X100333333Y-155076247D01*
X100333333Y-155076247D02*
X100380952Y-154981009D01*
X100380952Y-154981009D02*
X100428571Y-154933390D01*
X100428571Y-154933390D02*
X100523809Y-154885771D01*
X100523809Y-154885771D02*
X100714285Y-154885771D01*
X100714285Y-154885771D02*
X100809523Y-154933390D01*
X100809523Y-154933390D02*
X100857142Y-154981009D01*
X100857142Y-154981009D02*
X100904761Y-155076247D01*
X54083333Y-64504819D02*
X54083333Y-65219104D01*
X54083333Y-65219104D02*
X54130952Y-65361961D01*
X54130952Y-65361961D02*
X54226190Y-65457200D01*
X54226190Y-65457200D02*
X54369047Y-65504819D01*
X54369047Y-65504819D02*
X54464285Y-65504819D01*
X53607142Y-65504819D02*
X53607142Y-64504819D01*
X53607142Y-64504819D02*
X53226190Y-64504819D01*
X53226190Y-64504819D02*
X53130952Y-64552438D01*
X53130952Y-64552438D02*
X53083333Y-64600057D01*
X53083333Y-64600057D02*
X53035714Y-64695295D01*
X53035714Y-64695295D02*
X53035714Y-64838152D01*
X53035714Y-64838152D02*
X53083333Y-64933390D01*
X53083333Y-64933390D02*
X53130952Y-64981009D01*
X53130952Y-64981009D02*
X53226190Y-65028628D01*
X53226190Y-65028628D02*
X53607142Y-65028628D01*
X52654761Y-64600057D02*
X52607142Y-64552438D01*
X52607142Y-64552438D02*
X52511904Y-64504819D01*
X52511904Y-64504819D02*
X52273809Y-64504819D01*
X52273809Y-64504819D02*
X52178571Y-64552438D01*
X52178571Y-64552438D02*
X52130952Y-64600057D01*
X52130952Y-64600057D02*
X52083333Y-64695295D01*
X52083333Y-64695295D02*
X52083333Y-64790533D01*
X52083333Y-64790533D02*
X52130952Y-64933390D01*
X52130952Y-64933390D02*
X52702380Y-65504819D01*
X52702380Y-65504819D02*
X52083333Y-65504819D01*
X54083333Y-61854819D02*
X54083333Y-62569104D01*
X54083333Y-62569104D02*
X54130952Y-62711961D01*
X54130952Y-62711961D02*
X54226190Y-62807200D01*
X54226190Y-62807200D02*
X54369047Y-62854819D01*
X54369047Y-62854819D02*
X54464285Y-62854819D01*
X53607142Y-62854819D02*
X53607142Y-61854819D01*
X53607142Y-61854819D02*
X53226190Y-61854819D01*
X53226190Y-61854819D02*
X53130952Y-61902438D01*
X53130952Y-61902438D02*
X53083333Y-61950057D01*
X53083333Y-61950057D02*
X53035714Y-62045295D01*
X53035714Y-62045295D02*
X53035714Y-62188152D01*
X53035714Y-62188152D02*
X53083333Y-62283390D01*
X53083333Y-62283390D02*
X53130952Y-62331009D01*
X53130952Y-62331009D02*
X53226190Y-62378628D01*
X53226190Y-62378628D02*
X53607142Y-62378628D01*
X52702380Y-61854819D02*
X52083333Y-61854819D01*
X52083333Y-61854819D02*
X52416666Y-62235771D01*
X52416666Y-62235771D02*
X52273809Y-62235771D01*
X52273809Y-62235771D02*
X52178571Y-62283390D01*
X52178571Y-62283390D02*
X52130952Y-62331009D01*
X52130952Y-62331009D02*
X52083333Y-62426247D01*
X52083333Y-62426247D02*
X52083333Y-62664342D01*
X52083333Y-62664342D02*
X52130952Y-62759580D01*
X52130952Y-62759580D02*
X52178571Y-62807200D01*
X52178571Y-62807200D02*
X52273809Y-62854819D01*
X52273809Y-62854819D02*
X52559523Y-62854819D01*
X52559523Y-62854819D02*
X52654761Y-62807200D01*
X52654761Y-62807200D02*
X52702380Y-62759580D01*
D11*
%TO.C,JP7*%
X103250000Y-156600000D02*
X103250000Y-158000000D01*
X103950000Y-158700000D02*
X104550000Y-158700000D01*
X104550000Y-155900000D02*
X103950000Y-155900000D01*
X105250000Y-158000000D02*
X105250000Y-156600000D01*
X103250000Y-156600000D02*
G75*
G02*
X103950000Y-155900000I700000J0D01*
G01*
X103950000Y-158700000D02*
G75*
G02*
X103250000Y-158000000I-1J699999D01*
G01*
X104550000Y-155900000D02*
G75*
G02*
X105250000Y-156600000I0J-700000D01*
G01*
X105250000Y-158000000D02*
G75*
G02*
X104550000Y-158700000I-699999J-1D01*
G01*
%TO.C,JP1*%
X54700000Y-67000000D02*
X54700000Y-67600000D01*
X55400000Y-68300000D02*
X56800000Y-68300000D01*
X56800000Y-66300000D02*
X55400000Y-66300000D01*
X57500000Y-67600000D02*
X57500000Y-67000000D01*
X54700000Y-67000000D02*
G75*
G02*
X55400000Y-66300000I700000J0D01*
G01*
X55400000Y-68300000D02*
G75*
G02*
X54700000Y-67600000I0J700000D01*
G01*
X56800000Y-66300000D02*
G75*
G02*
X57500000Y-67000000I1J-699999D01*
G01*
X57500000Y-67600000D02*
G75*
G02*
X56800000Y-68300000I-699999J-1D01*
G01*
%TO.C,JP4*%
X54700000Y-59500000D02*
X54700000Y-60100000D01*
X55400000Y-60800000D02*
X56800000Y-60800000D01*
X56800000Y-58800000D02*
X55400000Y-58800000D01*
X57500000Y-60100000D02*
X57500000Y-59500000D01*
X54700000Y-59500000D02*
G75*
G02*
X55400000Y-58800000I700000J0D01*
G01*
X55400000Y-60800000D02*
G75*
G02*
X54700000Y-60100000I0J700000D01*
G01*
X56800000Y-58800000D02*
G75*
G02*
X57500000Y-59500000I1J-699999D01*
G01*
X57500000Y-60100000D02*
G75*
G02*
X56800000Y-60800000I-699999J-1D01*
G01*
%TO.C,JP11*%
X122550000Y-115450000D02*
X122550000Y-116850000D01*
X123250000Y-117550000D02*
X123850000Y-117550000D01*
X123850000Y-114750000D02*
X123250000Y-114750000D01*
X124550000Y-116850000D02*
X124550000Y-115450000D01*
X122550000Y-115450000D02*
G75*
G02*
X123250000Y-114750000I699999J1D01*
G01*
X123250000Y-117550000D02*
G75*
G02*
X122550000Y-116850000I0J700000D01*
G01*
X123850000Y-114750000D02*
G75*
G02*
X124550000Y-115450000I1J-699999D01*
G01*
X124550000Y-116850000D02*
G75*
G02*
X123850000Y-117550000I-700000J0D01*
G01*
%TO.C,JP6*%
X100750000Y-156600000D02*
X100750000Y-158000000D01*
X101450000Y-158700000D02*
X102050000Y-158700000D01*
X102050000Y-155900000D02*
X101450000Y-155900000D01*
X102750000Y-158000000D02*
X102750000Y-156600000D01*
X100750000Y-156600000D02*
G75*
G02*
X101450000Y-155900000I699999J1D01*
G01*
X101450000Y-158700000D02*
G75*
G02*
X100750000Y-158000000I0J700000D01*
G01*
X102050000Y-155900000D02*
G75*
G02*
X102750000Y-156600000I1J-699999D01*
G01*
X102750000Y-158000000D02*
G75*
G02*
X102050000Y-158700000I-700000J0D01*
G01*
%TO.C,JP2*%
X54700000Y-64500000D02*
X54700000Y-65100000D01*
X55400000Y-65800000D02*
X56800000Y-65800000D01*
X56800000Y-63800000D02*
X55400000Y-63800000D01*
X57500000Y-65100000D02*
X57500000Y-64500000D01*
X54700000Y-64500000D02*
G75*
G02*
X55400000Y-63800000I700000J0D01*
G01*
X55400000Y-65800000D02*
G75*
G02*
X54700000Y-65100000I0J700000D01*
G01*
X56800000Y-63800000D02*
G75*
G02*
X57500000Y-64500000I1J-699999D01*
G01*
X57500000Y-65100000D02*
G75*
G02*
X56800000Y-65800000I-699999J-1D01*
G01*
%TO.C,JP3*%
X54700000Y-62000000D02*
X54700000Y-62600000D01*
X55400000Y-63300000D02*
X56800000Y-63300000D01*
X56800000Y-61300000D02*
X55400000Y-61300000D01*
X57500000Y-62600000D02*
X57500000Y-62000000D01*
X54700000Y-62000000D02*
G75*
G02*
X55400000Y-61300000I700000J0D01*
G01*
X55400000Y-63300000D02*
G75*
G02*
X54700000Y-62600000I0J700000D01*
G01*
X56800000Y-61300000D02*
G75*
G02*
X57500000Y-62000000I1J-699999D01*
G01*
X57500000Y-62600000D02*
G75*
G02*
X56800000Y-63300000I-699999J-1D01*
G01*
%TD*%
M02*
