M48
; DRILL file {KiCad 9.0.7} date 2026-03-18T19:37:08+0000
; FORMAT={-:-/ absolute / metric / decimal}
; #@! TF.CreationDate,2026-03-18T19:37:08+00:00
; #@! TF.GenerationSoftware,Kicad,Pcbnew,9.0.7
; #@! TF.FileFunction,Plated,1,4,PTH
FMAT,2
METRIC
; #@! TA.AperFunction,Plated,PTH,ComponentDrill
T1C0.200
; #@! TA.AperFunction,Plated,PTH,ViaDrill
T2C0.300
; #@! TA.AperFunction,Plated,PTH,ViaDrill
T3C0.500
; #@! TA.AperFunction,Plated,PTH,ComponentDrill
T4C0.920
; #@! TA.AperFunction,Plated,PTH,ViaDrill
T5C1.000
; #@! TA.AperFunction,Plated,PTH,ComponentDrill
T6C1.000
; #@! TA.AperFunction,Plated,PTH,ComponentDrill
T7C1.500
; #@! TA.AperFunction,Plated,PTH,ComponentDrill
T8C2.330
; #@! TA.AperFunction,Plated,PTH,ComponentDrill
T9C2.700
; #@! TA.AperFunction,Plated,PTH,ComponentDrill
T10C3.200
; #@! TA.AperFunction,Plated,PTH,ComponentDrill
T11C3.400
%
G90
G05
T1
X70.75Y-156.4
X70.75Y-157.4
X70.75Y-158.4
X71.75Y-156.4
X71.75Y-157.4
X71.75Y-158.4
X72.75Y-156.4
X72.75Y-157.4
X72.75Y-158.4
T2
X52.0Y-59.0
X52.0Y-71.0
X52.0Y-73.0
X52.0Y-75.0
X52.0Y-77.0
X54.0Y-64.0
X54.0Y-66.0
X54.0Y-68.0
X54.0Y-166.0
X56.0Y-69.0
X56.3Y-138.808
X57.1Y-150.007
X57.15Y-154.75
X57.2Y-163.15
X57.3Y-136.058
X58.0Y-58.0
X58.0Y-64.0
X58.0Y-66.0
X58.0Y-74.0
X58.0Y-76.0
X58.0Y-78.0
X58.0Y-80.0
X58.0Y-82.0
X58.0Y-84.0
X58.0Y-86.0
X58.0Y-88.0
X58.0Y-90.0
X58.0Y-92.0
X58.0Y-94.0
X58.0Y-96.0
X58.0Y-98.0
X58.0Y-100.0
X58.0Y-112.0
X58.0Y-114.0
X58.0Y-116.0
X58.0Y-118.0
X58.0Y-120.0
X58.0Y-122.0
X58.0Y-174.0
X58.0Y-176.0
X58.0Y-178.0
X58.0Y-180.0
X58.0Y-182.0
X58.0Y-184.0
X58.0Y-186.0
X58.45Y-137.857
X58.625Y-150.139
X58.7Y-154.8
X58.7Y-163.2
X58.8Y-79.6
X58.8Y-194.3
X59.3Y-148.457
X59.5Y-142.058
X59.6Y-136.107
X59.7Y-74.9
X59.8Y-79.6
X60.0Y-59.0
X60.0Y-61.0
X60.0Y-63.0
X60.0Y-157.0
X60.0Y-159.0
X60.0Y-167.0
X60.0Y-175.0
X60.0Y-177.0
X60.0Y-187.0
X60.0Y-196.0
X60.0Y-198.0
X60.3Y-194.3
X60.5Y-138.808
X60.7Y-79.6
X61.0Y-86.3
X61.1Y-166.2
X61.214Y-128.1
X61.6Y-163.037
X61.8Y-194.3
X62.0Y-58.0
X62.0Y-88.0
X62.0Y-90.0
X62.0Y-92.0
X62.0Y-100.0
X62.0Y-102.0
X62.0Y-106.0
X62.0Y-108.0
X62.0Y-114.0
X62.0Y-116.0
X62.0Y-118.0
X62.0Y-120.0
X62.0Y-122.0
X62.0Y-134.0
X62.0Y-144.0
X62.0Y-146.0
X62.0Y-148.0
X62.0Y-150.0
X62.0Y-176.0
X62.0Y-178.0
X62.0Y-186.0
X62.0Y-197.0
X62.4Y-75.0
X62.4Y-79.6
X62.6Y-166.2
X62.7Y-161.737
X62.8Y-190.3
X63.025Y-152.838
X63.3Y-79.6
X63.3Y-194.3
X63.4Y-74.9
X64.0Y-67.0
X64.0Y-89.0
X64.0Y-91.0
X64.0Y-93.0
X64.0Y-99.0
X64.0Y-101.0
X64.0Y-103.0
X64.0Y-107.0
X64.0Y-109.0
X64.0Y-113.0
X64.0Y-115.0
X64.0Y-117.0
X64.0Y-119.0
X64.0Y-121.0
X64.0Y-123.0
X64.0Y-125.0
X64.0Y-127.0
X64.0Y-141.0
X64.0Y-143.0
X64.0Y-145.0
X64.0Y-147.0
X64.0Y-149.0
X64.0Y-151.0
X64.0Y-177.0
X64.0Y-187.0
X64.0Y-196.0
X64.0Y-198.0
X64.3Y-72.1
X64.3Y-75.0
X64.3Y-79.6
X64.3Y-157.137
X64.85Y-133.857
X65.5Y-155.838
X65.8Y-123.55
X65.8Y-126.1
X65.8Y-128.6
X65.86Y-73.4
X66.0Y-52.0
X66.0Y-60.0
X66.0Y-62.0
X66.0Y-64.0
X66.0Y-66.0
X66.0Y-68.0
X66.0Y-94.0
X66.0Y-96.0
X66.0Y-98.0
X66.0Y-100.0
X66.0Y-102.0
X66.0Y-104.0
X66.0Y-108.0
X66.0Y-114.0
X66.0Y-116.0
X66.0Y-122.0
X66.0Y-134.0
X66.0Y-138.0
X66.0Y-140.0
X66.0Y-142.0
X66.0Y-144.0
X66.0Y-146.0
X66.0Y-148.0
X66.0Y-150.0
X66.0Y-152.0
X66.0Y-186.0
X66.0Y-197.0
X66.325Y-152.737
X66.325Y-154.237
X66.425Y-166.05
X66.55Y-72.8
X66.8Y-162.575
X66.925Y-156.137
X67.05Y-117.85
X67.3Y-85.3
X67.328Y-71.428
X67.625Y-155.637
X67.8Y-194.3
X68.0Y-53.0
X68.0Y-63.0
X68.0Y-67.0
X68.0Y-93.0
X68.0Y-95.0
X68.0Y-97.0
X68.0Y-99.0
X68.0Y-113.0
X68.0Y-115.0
X68.0Y-121.0
X68.0Y-123.0
X68.0Y-139.0
X68.0Y-151.0
X68.0Y-166.0
X68.0Y-168.0
X68.0Y-170.0
X68.0Y-181.0
X68.0Y-183.0
X68.0Y-185.0
X68.0Y-187.0
X68.0Y-196.0
X68.0Y-198.0
X68.3Y-155.2
X68.3Y-162.575
X68.35Y-117.5
X68.5Y-163.4
X69.35Y-102.25
X69.35Y-108.0
X69.4Y-105.9
X69.65Y-127.4
X69.725Y-160.338
X69.75Y-57.5
X69.8Y-125.75
X69.8Y-129.25
X69.8Y-165.037
X70.0Y-52.0
X70.0Y-54.0
X70.0Y-92.0
X70.0Y-94.0
X70.0Y-122.0
X70.0Y-134.0
X70.0Y-138.0
X70.0Y-140.0
X70.0Y-167.0
X70.0Y-173.0
X70.0Y-184.0
X70.0Y-186.0
X70.0Y-197.0
X70.2Y-169.0
X70.325Y-160.938
X70.425Y-142.137
X70.425Y-148.438
X70.8Y-99.987
X70.8Y-103.71
X70.8Y-107.0
X70.8Y-112.012
X70.8Y-115.812
X71.025Y-143.438
X71.025Y-150.938
X71.1Y-116.9
X71.1Y-125.8
X71.1Y-129.5
X71.1Y-130.8
X71.25Y-55.1
X71.251Y-71.428
X71.3Y-120.3
X71.3Y-165.037
X71.6Y-95.0
X71.6Y-98.7
X71.6Y-151.938
X71.625Y-140.838
X72.0Y-53.0
X72.0Y-83.0
X72.0Y-85.0
X72.0Y-91.0
X72.0Y-93.0
X72.0Y-121.0
X72.0Y-123.0
X72.0Y-139.0
X72.0Y-174.0
X72.0Y-185.0
X72.0Y-187.0
X72.0Y-196.0
X72.0Y-198.0
X72.1Y-131.4
X72.1Y-152.938
X72.225Y-149.737
X72.3Y-99.987
X72.3Y-104.7
X72.3Y-107.1
X72.3Y-111.412
X72.3Y-115.812
X72.4Y-162.137
X72.4Y-163.5
X72.625Y-161.037
X72.7Y-166.2
X72.8Y-58.1
X72.8Y-125.8
X72.825Y-145.237
X72.825Y-147.137
X72.825Y-153.637
X72.948Y-71.428
X73.0Y-116.9
X73.0Y-120.3
X73.0Y-130.2
X73.3Y-98.7
X73.4Y-96.0
X73.8Y-99.987
X73.8Y-105.3
X73.8Y-107.1
X73.8Y-110.812
X73.8Y-115.812
X73.925Y-152.438
X74.0Y-52.0
X74.0Y-54.0
X74.0Y-84.0
X74.0Y-86.0
X74.0Y-88.0
X74.0Y-90.0
X74.0Y-92.0
X74.0Y-94.0
X74.0Y-97.2
X74.0Y-122.0
X74.0Y-124.0
X74.0Y-134.0
X74.0Y-138.0
X74.0Y-173.0
X74.0Y-175.0
X74.0Y-177.0
X74.0Y-197.0
X74.1Y-159.137
X74.1Y-161.4
X74.2Y-166.2
X74.26Y-55.7
X74.6Y-125.7
X74.6Y-129.5
X74.6Y-132.0
X74.7Y-156.7
X74.938Y-153.062
X75.0Y-102.5
X75.2Y-156.075
X75.75Y-58.7
X75.75Y-142.15
X75.75Y-148.45
X75.9Y-171.5
X75.9Y-193.9
X75.95Y-99.65
X75.95Y-133.25
X76.0Y-53.0
X76.0Y-55.0
X76.0Y-85.0
X76.0Y-87.0
X76.0Y-89.0
X76.0Y-91.0
X76.0Y-93.0
X76.0Y-95.0
X76.0Y-123.0
X76.0Y-125.0
X76.0Y-127.0
X76.0Y-129.0
X76.0Y-139.0
X76.0Y-156.1
X76.0Y-168.0
X76.0Y-170.0
X76.0Y-196.0
X76.0Y-198.0
X76.028Y-161.4
X76.028Y-159.737
X76.256Y-116.9
X76.256Y-119.15
X76.6Y-178.304
X76.724Y-132.45
X77.0Y-156.025
X77.25Y-56.3
X77.441Y-177.976
X77.557Y-132.712
X77.7Y-154.938
X77.8Y-79.2
X77.858Y-77.405
X77.968Y-161.315
X78.0Y-52.0
X78.0Y-54.0
X78.0Y-84.0
X78.0Y-86.0
X78.0Y-88.0
X78.0Y-90.0
X78.0Y-92.0
X78.0Y-94.0
X78.0Y-96.0
X78.0Y-98.0
X78.0Y-100.0
X78.0Y-102.0
X78.0Y-104.0
X78.0Y-106.0
X78.0Y-108.0
X78.0Y-110.0
X78.0Y-112.0
X78.0Y-114.0
X78.0Y-116.0
X78.0Y-118.0
X78.0Y-120.9
X78.0Y-158.4
X78.0Y-159.9
X78.0Y-162.9
X78.0Y-169.0
X78.0Y-171.0
X78.0Y-173.0
X78.0Y-175.0
X78.0Y-183.0
X78.0Y-197.0
X78.002Y-186.5
X78.009Y-156.625
X78.2Y-129.1
X78.3Y-76.4
X78.75Y-59.3
X78.75Y-185.9
X78.75Y-186.828
X78.8Y-128.55
X79.4Y-129.1
X79.4Y-167.7
X79.503Y-137.4
X79.787Y-79.744
X79.787Y-81.644
X79.8Y-75.244
X79.8Y-77.144
X79.8Y-84.294
X79.8Y-86.194
X79.8Y-88.794
X79.8Y-90.694
X79.85Y-102.244
X79.85Y-104.144
X79.85Y-111.194
X79.85Y-113.094
X79.862Y-93.244
X79.862Y-95.144
X79.862Y-106.744
X79.862Y-108.644
X79.875Y-97.694
X79.875Y-99.594
X79.946Y-195.994
X79.95Y-157.657
X79.95Y-159.157
X79.95Y-160.657
X79.95Y-162.107
X80.0Y-53.0
X80.0Y-55.0
X80.0Y-115.0
X80.0Y-117.0
X80.0Y-119.0
X80.0Y-121.0
X80.0Y-128.5
X80.0Y-163.657
X80.0Y-172.0
X80.0Y-174.0
X80.0Y-176.0
X80.0Y-184.0
X80.0Y-186.0
X80.0Y-190.0
X80.0Y-192.0
X80.0Y-194.0
X80.0Y-198.0
X80.248Y-158.4
X80.25Y-56.9
X80.307Y-138.806
X80.324Y-136.624
X80.576Y-156.484
X80.6Y-129.1
X81.0Y-136.1
X81.02Y-141.22
X81.183Y-157.006
X81.2Y-128.5
X81.8Y-129.1
X81.8Y-157.6
X82.0Y-52.0
X82.0Y-54.0
X82.0Y-56.0
X82.0Y-114.0
X82.0Y-116.0
X82.0Y-118.0
X82.0Y-120.0
X82.0Y-122.0
X82.0Y-142.0
X82.0Y-144.0
X82.0Y-146.0
X82.0Y-148.0
X82.0Y-150.0
X82.0Y-173.0
X82.0Y-177.0
X82.0Y-183.0
X82.0Y-185.0
X82.0Y-191.0
X82.0Y-193.0
X82.0Y-197.0
X82.0Y-174.993
X82.1Y-167.8
X82.4Y-171.9
X82.7Y-152.5
X82.8Y-159.6
X83.4Y-151.0
X83.6Y-167.8
X83.9Y-171.9
X84.0Y-53.0
X84.0Y-55.0
X84.0Y-57.0
X84.0Y-117.0
X84.0Y-119.0
X84.0Y-121.0
X84.0Y-123.0
X84.0Y-125.0
X84.0Y-127.0
X84.0Y-139.0
X84.0Y-141.0
X84.0Y-164.5
X84.0Y-174.0
X84.0Y-176.0
X84.0Y-184.0
X84.0Y-186.0
X84.0Y-190.0
X84.0Y-192.0
X84.0Y-194.0
X84.019Y-197.981
X84.045Y-195.994
X84.056Y-133.04
X84.1Y-72.6
X84.27Y-80.411
X84.288Y-84.932
X84.292Y-75.921
X84.303Y-89.422
X84.337Y-111.824
X84.339Y-98.373
X84.35Y-107.344
X84.351Y-102.866
X84.361Y-93.845
X84.474Y-158.678
X84.5Y-152.5
X84.5Y-159.6
X84.6Y-133.64
X84.7Y-155.15
X84.725Y-76.594
X84.725Y-81.069
X84.737Y-85.594
X84.737Y-90.094
X84.75Y-58.6
X84.75Y-94.544
X84.775Y-99.044
X84.775Y-103.544
X84.775Y-112.494
X84.8Y-108.044
X84.9Y-151.0
X85.05Y-163.45
X85.268Y-134.24
X85.272Y-71.428
X85.284Y-158.639
X85.4Y-171.9
X85.5Y-157.85
X85.717Y-166.024
X85.8Y-155.15
X85.8Y-160.137
X85.9Y-151.0
X85.961Y-134.8
X85.975Y-197.0
X86.0Y-52.0
X86.0Y-54.0
X86.0Y-56.0
X86.0Y-138.0
X86.0Y-153.137
X86.0Y-173.0
X86.0Y-175.0
X86.0Y-177.0
X86.2Y-143.5
X86.5Y-169.4
X86.6Y-135.5
X86.7Y-189.2
X86.7Y-193.1
X86.725Y-182.815
X86.725Y-186.5
X86.9Y-143.9
X86.9Y-145.4
X86.9Y-146.9
X87.3Y-142.1
X87.337Y-169.3
X87.75Y-58.0
X87.8Y-148.037
X87.975Y-197.986
X88.0Y-53.0
X88.0Y-55.0
X88.0Y-172.0
X88.0Y-174.0
X88.0Y-176.0
X88.0Y-196.0
X88.025Y-76.594
X88.025Y-81.119
X88.037Y-85.594
X88.037Y-90.094
X88.05Y-94.544
X88.075Y-99.044
X88.075Y-103.544
X88.075Y-112.544
X88.15Y-108.044
X88.3Y-189.2
X88.325Y-182.815
X88.6Y-170.8
X88.7Y-153.2
X88.7Y-157.0
X88.8Y-166.7
X88.9Y-165.15
X88.92Y-153.969
X89.1Y-154.8
X89.116Y-67.1
X89.3Y-140.0
X89.495Y-169.449
X89.841Y-160.65
X89.85Y-165.15
X89.9Y-150.8
X89.975Y-197.0
X90.0Y-52.0
X90.0Y-54.0
X90.0Y-56.0
X90.0Y-79.144
X90.0Y-83.644
X90.0Y-88.144
X90.0Y-92.644
X90.0Y-97.094
X90.0Y-115.094
X90.0Y-121.7
X90.0Y-122.5
X90.0Y-123.6
X90.0Y-124.4
X90.05Y-101.594
X90.05Y-106.094
X90.05Y-110.594
X90.294Y-169.425
X90.45Y-194.1
X90.65Y-146.1
X90.65Y-160.65
X90.65Y-165.15
X90.7Y-150.8
X90.795Y-155.2
X90.795Y-158.85
X91.098Y-169.43
X91.45Y-160.65
X91.45Y-165.15
X91.6Y-143.9
X91.85Y-148.0
X91.9Y-140.6
X91.911Y-169.431
X91.975Y-197.986
X92.0Y-59.0
X92.0Y-196.0
X92.025Y-184.015
X92.1Y-190.7
X92.5Y-192.7
X92.615Y-147.765
X92.85Y-172.1
X93.1Y-139.9
X93.3Y-173.6
X93.3Y-175.3
X93.3Y-192.7
X93.307Y-159.95
X93.497Y-121.7
X93.497Y-122.5
X93.497Y-123.6
X93.497Y-124.4
X93.497Y-134.24
X93.509Y-148.1
X93.7Y-189.4
X93.725Y-182.815
X93.926Y-192.196
X93.963Y-158.85
X93.975Y-197.0
X94.0Y-64.0
X94.0Y-66.0
X94.0Y-127.0
X94.0Y-129.0
X94.0Y-139.9
X94.0Y-143.8
X94.0Y-173.0
X94.0Y-175.0
X94.0Y-177.0
X94.075Y-133.64
X94.094Y-114.61
X94.094Y-116.51
X94.132Y-119.11
X94.132Y-121.01
X94.476Y-153.224
X94.7Y-133.04
X94.8Y-150.575
X94.849Y-166.999
X95.3Y-134.8
X95.346Y-151.161
X95.4Y-80.05
X95.4Y-81.65
X95.4Y-88.225
X95.4Y-89.825
X95.4Y-147.8
X95.697Y-167.011
X95.9Y-143.85
X95.95Y-139.95
X95.975Y-197.986
X96.0Y-61.0
X96.0Y-63.0
X96.0Y-67.0
X96.0Y-126.0
X96.0Y-128.0
X96.0Y-134.0
X96.0Y-176.0
X96.0Y-178.0
X96.0Y-196.0
X96.15Y-164.0
X96.35Y-147.1
X96.374Y-103.081
X96.374Y-107.881
X96.384Y-94.86
X96.384Y-99.66
X96.4Y-96.5
X96.4Y-98.1
X96.4Y-104.7
X96.4Y-106.3
X96.65Y-167.0
X96.7Y-143.7
X96.7Y-145.0
X96.8Y-141.819
X96.9Y-137.2
X96.9Y-138.7
X97.0Y-164.0
X97.15Y-147.35
X97.15Y-172.1
X97.5Y-92.6
X97.6Y-162.6
X97.737Y-139.081
X97.975Y-197.0
X98.0Y-52.0
X98.0Y-62.0
X98.0Y-66.0
X98.0Y-125.0
X98.0Y-127.0
X98.0Y-129.0
X98.2Y-163.35
X98.5Y-147.5
X98.594Y-115.285
X98.594Y-119.785
X98.6Y-139.1
X98.675Y-184.765
X98.7Y-169.4
X98.75Y-85.713
X98.75Y-150.6
X98.8Y-191.4
X98.9Y-84.4
X99.044Y-115.95
X99.069Y-120.46
X99.5Y-135.9
X99.8Y-172.0
X99.8Y-177.4
X99.975Y-197.986
X100.0Y-53.0
X100.0Y-55.0
X100.0Y-57.0
X100.0Y-61.0
X100.0Y-63.0
X100.0Y-67.0
X100.0Y-126.0
X100.0Y-128.0
X100.0Y-134.0
X100.0Y-196.0
X100.2Y-165.2
X100.428Y-114.872
X100.5Y-164.4
X100.6Y-76.0
X100.6Y-141.819
X100.8Y-151.0
X101.044Y-118.385
X101.044Y-122.985
X101.05Y-114.35
X101.2Y-172.0
X101.3Y-163.8
X101.413Y-153.563
X101.5Y-177.4
X101.7Y-151.0
X101.75Y-155.65
X101.75Y-158.95
X101.9Y-166.801
X102.0Y-52.0
X102.0Y-62.0
X102.0Y-66.0
X102.0Y-125.0
X102.0Y-127.0
X102.0Y-129.0
X102.0Y-197.0
X102.033Y-154.163
X102.394Y-114.61
X102.394Y-116.51
X102.407Y-119.11
X102.407Y-121.01
X102.8Y-175.1
X102.95Y-151.9
X102.99Y-151.075
X103.0Y-176.0
X103.0Y-178.4
X103.0Y-183.0
X103.447Y-172.928
X103.75Y-169.3
X103.8Y-176.4
X103.8Y-178.4
X103.8Y-183.0
X103.975Y-197.986
X104.0Y-61.0
X104.0Y-63.0
X104.0Y-67.0
X104.0Y-126.0
X104.0Y-128.0
X104.0Y-196.0
X104.25Y-155.65
X104.25Y-158.95
X104.275Y-186.575
X104.3Y-147.7
X104.3Y-150.7
X104.325Y-135.925
X104.572Y-178.188
X104.7Y-142.4
X104.8Y-168.9
X104.9Y-69.75
X105.15Y-172.15
X105.17Y-160.97
X105.5Y-183.0
X105.5Y-69.15
X105.7Y-176.6
X105.85Y-153.9
X105.975Y-197.0
X106.0Y-62.0
X106.0Y-125.0
X106.0Y-127.0
X106.2Y-172.5
X106.25Y-169.35
X106.55Y-67.9
X106.55Y-154.35
X106.742Y-129.872
X106.9Y-155.9
X106.9Y-156.85
X106.913Y-115.286
X106.917Y-155.086
X106.917Y-119.784
X107.1Y-162.9
X107.1Y-172.0
X107.2Y-166.25
X107.3Y-164.3
X107.344Y-115.96
X107.344Y-120.46
X107.4Y-158.25
X107.4Y-165.15
X107.455Y-170.905
X107.7Y-143.6
X107.7Y-145.1
X107.7Y-146.6
X107.975Y-197.986
X107.983Y-135.988
X108.0Y-61.0
X108.0Y-63.0
X108.0Y-126.0
X108.0Y-129.272
X108.0Y-138.0
X108.0Y-140.0
X108.0Y-142.0
X108.0Y-196.0
X108.501Y-67.301
X108.65Y-128.672
X108.7Y-114.9
X109.0Y-69.15
X109.2Y-188.6
X109.213Y-128.072
X109.294Y-122.985
X109.335Y-118.447
X109.4Y-114.5
X109.4Y-148.3
X109.4Y-150.1
X109.975Y-197.0
X110.0Y-52.0
X110.0Y-54.0
X110.0Y-60.0
X110.0Y-62.0
X110.0Y-135.0
X110.0Y-137.0
X110.0Y-139.0
X110.0Y-141.0
X110.0Y-143.0
X110.0Y-145.0
X110.0Y-147.0
X110.2Y-159.6
X110.2Y-167.85
X110.5Y-163.0
X110.5Y-168.6
X110.6Y-188.6
X110.8Y-153.2
X110.8Y-154.3
X110.842Y-129.272
X111.3Y-177.6
X111.387Y-129.872
X111.4Y-168.8
X111.5Y-162.9
X111.561Y-87.1
X111.8Y-158.6
X112.0Y-53.0
X112.0Y-134.0
X112.0Y-136.0
X112.0Y-138.0
X112.0Y-140.0
X112.0Y-142.0
X112.0Y-144.0
X112.0Y-146.0
X112.0Y-147.1
X112.062Y-82.25
X112.2Y-180.507
X112.237Y-151.487
X112.35Y-55.5
X112.675Y-90.9
X112.675Y-93.9
X112.675Y-99.2
X112.7Y-92.4
X112.7Y-97.7
X112.762Y-77.35
X112.762Y-80.35
X112.762Y-85.65
X112.8Y-78.9
X112.8Y-84.2
X112.8Y-87.1
X112.8Y-100.7
X112.8Y-101.8
X113.0Y-158.6
X113.0Y-188.6
X113.085Y-177.006
X113.296Y-128.072
X113.3Y-162.9
X113.5Y-147.1
X113.7Y-101.8
X113.85Y-55.5
X113.9Y-128.7
X114.0Y-52.0
X114.0Y-54.0
X114.0Y-95.8
X114.0Y-123.0
X114.0Y-125.0
X114.0Y-127.0
X114.0Y-130.0
X114.0Y-143.0
X114.0Y-177.0
X114.1Y-151.9
X114.25Y-163.35
X114.25Y-164.6
X114.5Y-103.7
X114.9Y-103.0
X114.9Y-174.3
X114.9Y-181.8
X114.966Y-175.322
X114.966Y-176.9
X114.966Y-189.242
X115.2Y-162.4
X115.35Y-55.5
X115.5Y-151.9
X115.65Y-164.6
X116.0Y-53.0
X116.0Y-124.0
X116.0Y-126.0
X116.0Y-128.0
X116.0Y-130.0
X116.0Y-132.0
X116.0Y-144.0
X116.0Y-146.0
X116.0Y-148.0
X116.0Y-150.0
X116.0Y-160.0
X116.438Y-166.75
X116.583Y-167.733
X116.85Y-55.5
X117.15Y-183.0
X117.15Y-188.306
X117.3Y-175.322
X117.3Y-177.0
X117.35Y-104.75
X117.575Y-90.8
X117.575Y-100.7
X117.662Y-77.35
X117.662Y-87.25
X117.8Y-179.0
X118.0Y-52.0
X118.0Y-54.0
X118.0Y-123.0
X118.0Y-125.0
X118.0Y-127.0
X118.0Y-129.0
X118.0Y-131.0
X118.0Y-143.0
X118.0Y-145.0
X118.0Y-147.0
X118.0Y-151.0
X118.0Y-153.0
X118.0Y-157.0
X118.0Y-159.0
X118.0Y-163.0
X118.0Y-167.0
X118.0Y-169.0
X118.0Y-171.0
X118.0Y-173.0
X118.0Y-194.4
X118.0Y-195.3
X118.05Y-133.4
X118.35Y-55.5
X118.4Y-175.322
X118.4Y-179.906
X118.7Y-107.2
X119.0Y-120.1
X119.4Y-107.2
X119.4Y-107.9
X119.4Y-148.7
X119.5Y-93.3
X119.6Y-142.85
X119.7Y-111.1
X119.8Y-120.1
X119.85Y-55.5
X119.9Y-112.2
X119.9Y-113.0
X119.9Y-113.8
X120.0Y-53.0
X120.0Y-152.0
X120.0Y-158.0
X120.0Y-162.0
X120.0Y-168.0
X120.0Y-170.0
X120.0Y-172.0
X120.0Y-174.0
X120.0Y-178.0
X120.0Y-180.0
X120.0Y-182.0
X120.174Y-154.976
X120.4Y-101.7
X120.6Y-120.1
X120.7Y-112.2
X120.7Y-113.0
X120.7Y-113.8
X120.8Y-154.4
X120.9Y-148.65
X121.0Y-74.0
X121.0Y-76.0
X121.4Y-120.1
X121.5Y-78.9
X121.5Y-112.2
X121.5Y-113.0
X121.5Y-113.8
X122.0Y-52.0
X122.0Y-54.0
X122.0Y-151.0
X122.0Y-153.0
X122.0Y-157.0
X122.0Y-159.0
X122.0Y-161.0
X122.0Y-163.0
X122.0Y-167.0
X122.0Y-169.0
X122.0Y-171.0
X122.0Y-173.0
X122.0Y-175.0
X122.0Y-177.0
X122.0Y-179.0
X122.0Y-181.0
X122.0Y-183.0
X122.025Y-98.75
X122.025Y-99.45
X122.025Y-100.15
X122.025Y-100.85
X122.1Y-107.3
X122.125Y-85.3
X122.125Y-86.0
X122.125Y-86.7
X122.125Y-87.4
X122.15Y-103.45
X122.2Y-164.0
X122.725Y-98.75
X122.725Y-99.45
X122.725Y-100.15
X122.725Y-100.85
X122.825Y-85.3
X122.825Y-86.0
X122.825Y-86.7
X122.825Y-87.4
X122.85Y-55.5
X123.0Y-73.0
X123.0Y-75.0
X123.0Y-77.0
X123.425Y-98.75
X123.425Y-99.45
X123.425Y-100.15
X123.425Y-100.85
X123.525Y-85.3
X123.525Y-86.0
X123.525Y-86.7
X123.525Y-87.4
X124.0Y-53.0
X124.0Y-124.0
X124.0Y-126.0
X124.384Y-164.0
X124.8Y-165.75
X124.95Y-128.05
X125.0Y-72.0
X125.0Y-74.0
X125.0Y-76.0
X125.1Y-114.7
X125.1Y-116.8
X125.368Y-156.0
X125.7Y-164.65
X125.772Y-127.1
X125.85Y-55.5
X125.968Y-156.75
X126.0Y-52.0
X126.0Y-54.0
X126.0Y-137.0
X126.0Y-139.0
X126.0Y-177.0
X126.0Y-179.0
X126.0Y-181.0
X126.0Y-183.0
X126.1Y-187.8
X126.45Y-128.05
X126.8Y-187.2
X127.0Y-71.0
X127.0Y-73.0
X127.15Y-89.75
X127.175Y-99.2
X127.175Y-100.7
X127.262Y-85.75
X127.262Y-87.25
X127.325Y-93.9
X127.325Y-94.6
X127.325Y-95.3
X127.325Y-96.2
X127.325Y-96.9
X127.325Y-97.6
X127.375Y-80.45
X127.375Y-81.15
X127.375Y-81.85
X127.375Y-82.75
X127.375Y-83.45
X127.375Y-84.15
X127.5Y-186.6
X127.95Y-128.05
X128.0Y-53.0
X128.0Y-138.0
X128.0Y-150.0
X128.0Y-152.0
X128.0Y-154.0
X128.0Y-156.0
X128.0Y-158.0
X128.0Y-160.0
X128.0Y-162.0
X128.0Y-164.0
X128.0Y-166.0
X128.0Y-168.0
X128.0Y-170.0
X128.0Y-172.0
X128.0Y-174.0
X128.0Y-176.0
X128.0Y-178.0
X128.0Y-180.0
X128.0Y-182.0
X128.0Y-184.0
X128.025Y-93.9
X128.025Y-94.6
X128.025Y-95.3
X128.025Y-96.2
X128.025Y-96.9
X128.025Y-97.6
X128.075Y-80.45
X128.075Y-81.15
X128.075Y-81.85
X128.075Y-82.75
X128.075Y-83.45
X128.075Y-84.15
X128.2Y-186.0
X128.725Y-93.9
X128.725Y-94.6
X128.725Y-95.3
X128.725Y-96.2
X128.725Y-96.9
X128.725Y-97.6
X128.775Y-80.45
X128.775Y-81.15
X128.775Y-81.85
X128.775Y-82.75
X128.775Y-83.45
X128.775Y-84.15
X129.0Y-72.0
X130.0Y-52.0
X130.0Y-139.0
X130.0Y-151.0
X130.0Y-153.0
X130.0Y-155.0
X130.0Y-157.0
X130.0Y-159.0
X130.0Y-161.0
X130.0Y-163.0
X130.0Y-165.0
X130.0Y-167.0
X130.0Y-169.0
X130.0Y-171.0
X130.0Y-173.0
X130.0Y-175.0
X130.0Y-177.0
X130.0Y-179.0
X130.0Y-181.0
X130.0Y-183.0
X130.0Y-185.0
X130.0Y-193.0
X130.0Y-195.0
X130.0Y-197.0
X130.35Y-128.0
X131.444Y-98.3
X131.7Y-136.45
X131.85Y-113.638
X132.0Y-53.0
X132.0Y-138.0
X132.0Y-150.0
X132.0Y-152.0
X132.0Y-154.0
X132.0Y-156.0
X132.0Y-158.0
X132.0Y-160.0
X132.0Y-162.0
X132.0Y-164.0
X132.0Y-166.0
X132.0Y-168.0
X132.0Y-170.0
X132.0Y-172.0
X132.0Y-174.0
X132.0Y-176.0
X132.0Y-178.0
X132.0Y-180.0
X132.0Y-182.0
X132.0Y-184.0
X132.0Y-186.0
X132.0Y-188.0
X132.0Y-190.0
X132.0Y-196.0
X132.0Y-198.0
X132.1Y-123.662
X132.5Y-137.1
X132.638Y-122.438
X132.9Y-145.0
X133.2Y-124.7
X133.45Y-113.638
X133.7Y-146.9
X133.838Y-122.438
X134.0Y-52.0
X134.0Y-54.0
X134.0Y-131.0
X134.0Y-137.0
X134.0Y-139.0
X134.0Y-151.0
X134.0Y-153.0
X134.0Y-155.0
X134.0Y-157.0
X134.0Y-159.0
X134.0Y-161.0
X134.0Y-163.0
X134.0Y-165.0
X134.0Y-167.0
X134.0Y-169.0
X134.0Y-171.0
X134.0Y-173.0
X134.0Y-175.0
X134.0Y-177.0
X134.0Y-179.0
X134.0Y-181.0
X134.0Y-183.0
X134.0Y-185.0
X134.0Y-187.0
X134.0Y-189.0
X134.0Y-191.0
X134.028Y-196.939
X134.65Y-147.5
X135.05Y-113.638
X135.5Y-118.137
X135.5Y-118.887
X135.5Y-119.637
X135.5Y-120.387
X136.0Y-75.0
X136.0Y-130.0
X136.0Y-150.0
X136.0Y-152.0
X136.0Y-154.0
X136.0Y-156.0
X136.0Y-158.0
X136.0Y-160.0
X136.0Y-162.0
X136.0Y-164.0
X136.0Y-166.0
X136.0Y-168.0
X136.0Y-170.0
X136.0Y-172.0
X136.0Y-174.0
X136.0Y-176.0
X136.0Y-178.0
X136.0Y-180.0
X136.0Y-182.0
X136.0Y-184.0
X136.0Y-186.0
X136.0Y-188.0
X136.0Y-190.0
X136.0Y-192.0
X136.0Y-196.0
X136.0Y-198.0
X136.25Y-118.137
X136.25Y-118.887
X137.0Y-118.137
X137.0Y-118.887
X137.75Y-118.137
X137.75Y-118.887
X138.0Y-60.0
X138.0Y-62.0
X138.0Y-64.0
X138.0Y-66.0
X138.0Y-68.0
X138.0Y-70.0
X138.0Y-72.0
X138.0Y-74.0
X138.0Y-76.0
X138.0Y-129.0
X138.0Y-131.0
X138.0Y-151.0
X138.0Y-153.0
X138.0Y-155.0
X138.0Y-157.0
X138.0Y-159.0
X138.0Y-161.0
X138.0Y-163.0
X138.0Y-165.0
X138.0Y-167.0
X138.0Y-169.0
X138.0Y-171.0
X138.0Y-173.0
X138.0Y-175.0
X138.0Y-177.0
X138.0Y-179.0
X138.0Y-181.0
X138.0Y-183.0
X138.0Y-185.0
X138.0Y-187.0
X138.0Y-189.0
X138.0Y-191.0
X138.0Y-197.0
X138.25Y-113.638
X138.5Y-118.137
X138.5Y-118.887
X139.25Y-118.137
X139.25Y-118.887
X139.55Y-116.15
X139.7Y-137.0
X139.7Y-146.0
X140.0Y-59.0
X140.0Y-61.0
X140.0Y-63.0
X140.0Y-65.0
X140.0Y-67.0
X140.0Y-69.0
X140.0Y-71.0
X140.0Y-73.0
X140.0Y-75.0
X140.0Y-150.0
X140.0Y-152.0
X140.0Y-154.0
X140.0Y-156.0
X140.0Y-158.0
X140.0Y-160.0
X140.0Y-162.0
X140.0Y-164.0
X140.0Y-166.0
X140.0Y-168.0
X140.0Y-170.0
X140.0Y-172.0
X140.0Y-174.0
X140.0Y-176.0
X140.0Y-178.0
X140.0Y-180.0
X140.0Y-182.0
X140.0Y-184.0
X140.0Y-186.0
X140.0Y-188.0
X140.0Y-190.0
X140.0Y-192.0
X140.0Y-194.0
X140.0Y-196.0
X140.0Y-198.0
X140.5Y-137.45
X140.5Y-146.5
X142.0Y-52.0
X142.0Y-58.0
X142.0Y-60.0
X142.0Y-62.0
X142.0Y-64.0
X142.0Y-66.0
X142.0Y-68.0
X142.0Y-70.0
X142.0Y-72.0
X142.0Y-74.0
X142.0Y-76.0
X142.0Y-139.0
X142.0Y-141.0
X142.0Y-147.0
X142.0Y-149.0
X142.0Y-151.0
X142.0Y-153.0
X142.0Y-155.0
X142.0Y-157.0
X142.0Y-159.0
X142.0Y-161.0
X142.0Y-163.0
X142.0Y-165.0
X142.0Y-167.0
X142.0Y-169.0
X142.0Y-171.0
X142.0Y-173.0
X142.0Y-175.0
X142.0Y-177.0
X142.0Y-179.0
X142.0Y-181.0
X142.0Y-183.0
X142.0Y-191.0
X143.2Y-103.4
X143.2Y-131.95
X144.0Y-59.0
X144.0Y-61.0
X144.0Y-63.0
X144.0Y-65.0
X144.0Y-67.0
X144.0Y-69.0
X144.0Y-71.0
X144.0Y-73.0
X144.0Y-75.0
X144.0Y-138.0
X144.0Y-140.0
X144.0Y-150.0
X144.0Y-152.0
X144.0Y-154.0
X144.0Y-156.0
X144.0Y-158.0
X144.0Y-160.0
X144.0Y-162.0
X144.0Y-164.0
X144.0Y-166.0
X144.0Y-168.0
X144.0Y-170.0
X144.0Y-172.0
X144.0Y-174.0
X144.0Y-176.0
X144.0Y-178.0
X144.0Y-180.0
X144.0Y-182.0
X144.1Y-148.7
X144.45Y-113.25
X145.2Y-110.0
X145.6Y-148.7
X145.75Y-130.85
X146.0Y-60.0
X146.0Y-62.0
X146.0Y-64.0
X146.0Y-66.0
X146.0Y-68.0
X146.0Y-70.0
X146.0Y-72.0
X146.0Y-74.0
X146.0Y-76.0
X146.0Y-141.0
X146.0Y-143.0
X146.0Y-151.0
X146.0Y-153.0
X146.0Y-155.0
X146.0Y-157.0
X146.0Y-159.0
X146.0Y-161.0
X146.0Y-163.0
X146.0Y-165.0
X146.0Y-167.0
X146.0Y-169.0
X146.0Y-171.0
X146.0Y-173.0
X146.0Y-175.0
X146.0Y-177.0
X146.0Y-179.0
X146.0Y-181.0
X146.0Y-183.0
X146.3Y-98.5
X146.4Y-107.0
X147.35Y-133.4
X148.0Y-59.0
X148.0Y-61.0
X148.0Y-63.0
X148.0Y-65.0
X148.0Y-67.0
X148.0Y-69.0
X148.0Y-71.0
X148.0Y-73.0
X148.0Y-75.0
X148.0Y-77.0
X148.0Y-79.0
X148.0Y-81.0
X148.0Y-83.0
X148.0Y-85.0
X148.0Y-87.0
X148.0Y-89.0
X148.0Y-91.0
X148.0Y-93.0
X148.0Y-95.0
X148.0Y-97.0
X148.0Y-99.0
X148.0Y-101.0
X148.0Y-103.0
X148.0Y-105.0
X148.0Y-114.0
X148.0Y-116.0
X148.0Y-118.0
X148.0Y-120.0
X148.0Y-122.0
X148.0Y-124.0
X148.0Y-126.0
X148.0Y-128.0
X148.0Y-130.0
X148.0Y-132.0
X148.0Y-138.0
X148.0Y-140.0
X148.0Y-142.0
X148.0Y-144.0
X148.0Y-146.0
X148.0Y-148.0
X148.0Y-150.0
X148.0Y-152.0
X148.0Y-154.0
X148.0Y-156.0
X148.0Y-158.0
X148.0Y-160.0
X148.0Y-162.0
X148.0Y-164.0
X148.0Y-166.0
X148.0Y-168.0
X148.0Y-170.0
X148.0Y-172.0
X148.0Y-174.0
X148.0Y-176.0
X148.0Y-178.0
X148.0Y-180.0
X148.0Y-182.0
X148.0Y-184.0
X148.0Y-190.0
X148.0Y-192.0
T3
X57.3Y-191.6
X57.5Y-169.9
X57.5Y-190.3
X60.8Y-179.3
X60.8Y-180.5
X60.8Y-181.7
X60.8Y-182.9
X60.8Y-184.1
X62.0Y-179.3
X62.0Y-184.1
X63.2Y-179.3
X63.2Y-184.1
X64.4Y-179.3
X64.4Y-184.1
X65.6Y-179.3
X65.6Y-180.5
X65.6Y-181.7
X65.6Y-182.9
X65.6Y-184.1
X70.575Y-86.8
X77.4Y-74.2
X89.0Y-65.0
X100.873Y-101.81
X100.884Y-85.41
X100.884Y-86.668
X100.884Y-103.066
X100.9Y-77.21
X100.9Y-78.442
X100.9Y-93.61
X100.9Y-94.86
X102.073Y-101.81
X102.084Y-85.41
X102.084Y-86.668
X102.084Y-103.066
X102.1Y-77.21
X102.1Y-78.442
X102.1Y-93.61
X102.1Y-94.86
X103.273Y-101.81
X103.284Y-85.41
X103.284Y-86.668
X103.284Y-103.066
X103.3Y-77.21
X103.3Y-78.442
X103.3Y-93.61
X103.3Y-94.86
X104.473Y-101.81
X104.484Y-85.41
X104.484Y-86.668
X104.484Y-103.066
X104.5Y-77.21
X104.5Y-78.442
X104.5Y-93.61
X104.5Y-94.86
X105.673Y-101.81
X105.684Y-85.41
X105.684Y-86.668
X105.684Y-103.066
X105.7Y-77.21
X105.7Y-78.442
X105.7Y-93.61
X105.7Y-94.86
X106.873Y-101.81
X106.884Y-85.41
X106.884Y-86.668
X106.884Y-103.066
X106.9Y-77.21
X106.9Y-78.442
X106.9Y-93.61
X106.9Y-94.86
X107.0Y-70.872
X108.25Y-80.15
X108.25Y-81.35
X108.25Y-82.55
X108.274Y-104.781
X108.274Y-105.981
X108.274Y-107.181
X108.284Y-88.36
X108.284Y-89.56
X108.284Y-90.76
X108.296Y-96.565
X108.296Y-97.765
X108.296Y-98.965
X109.45Y-80.15
X109.45Y-81.35
X109.45Y-82.55
X109.474Y-104.781
X109.474Y-105.981
X109.474Y-107.181
X109.484Y-88.36
X109.484Y-89.56
X109.484Y-90.76
X109.496Y-96.565
X109.496Y-97.765
X109.496Y-98.965
X114.7Y-108.9
X114.7Y-110.0
X114.7Y-111.1
X114.7Y-112.2
X114.7Y-113.3
X114.7Y-114.4
X114.7Y-115.5
X114.7Y-116.6
X115.8Y-108.9
X115.8Y-110.0
X115.8Y-111.1
X115.8Y-112.2
X115.8Y-113.3
X115.8Y-114.4
X115.8Y-115.5
X115.8Y-116.6
X116.9Y-108.9
X117.378Y-113.012
X117.378Y-114.112
X117.378Y-115.212
X117.378Y-116.312
X117.4Y-110.8
X117.4Y-111.9
X118.0Y-108.9
X118.35Y-145.9
X118.5Y-110.8
X118.5Y-111.9
X118.5Y-113.0
X118.5Y-114.1
X118.5Y-115.2
X118.5Y-116.3
X121.95Y-145.1
X123.65Y-132.5
X123.7Y-104.6
X123.7Y-105.8
X123.7Y-107.0
X123.7Y-108.2
X123.7Y-109.4
X123.7Y-110.6
X123.837Y-130.862
X125.0Y-104.6
X125.0Y-105.8
X125.0Y-107.0
X125.0Y-108.2
X125.0Y-109.4
X125.0Y-110.6
X125.7Y-145.05
X127.65Y-132.4
X128.1Y-145.0
X128.85Y-114.737
X128.85Y-115.837
X128.85Y-116.938
X128.85Y-118.037
X129.0Y-130.85
X129.05Y-122.337
X129.05Y-123.438
X129.05Y-124.537
X129.05Y-125.637
X129.95Y-114.737
X129.95Y-115.837
X129.95Y-116.938
X129.95Y-118.037
X130.1Y-132.45
X130.25Y-122.337
X130.25Y-123.438
X130.25Y-124.537
X130.25Y-125.637
X131.0Y-144.85
X131.2Y-132.45
X132.3Y-77.6
X132.3Y-78.8
X132.3Y-80.0
X132.3Y-81.2
X132.3Y-82.4
X132.4Y-89.8
X132.4Y-91.0
X132.4Y-92.2
X132.4Y-93.4
X132.4Y-94.6
X132.4Y-95.8
X133.3Y-133.0
X133.5Y-77.6
X133.5Y-78.8
X133.5Y-80.0
X133.5Y-81.2
X133.5Y-82.4
X133.6Y-89.8
X133.6Y-91.0
X133.6Y-92.2
X133.6Y-93.4
X133.6Y-94.6
X133.6Y-95.8
X134.5Y-144.95
X134.7Y-77.6
X134.7Y-78.8
X134.7Y-80.0
X134.7Y-81.2
X134.7Y-82.4
X134.8Y-89.8
X134.8Y-91.0
X134.8Y-92.2
X135.9Y-77.6
X135.9Y-78.8
X135.9Y-80.0
X135.9Y-81.2
X135.9Y-82.4
X136.1Y-103.8
X136.1Y-105.05
X136.1Y-106.3
X136.1Y-107.55
X136.7Y-84.29
X136.7Y-85.54
X136.8Y-109.5
X136.8Y-110.7
X137.1Y-77.6
X137.1Y-78.8
X137.1Y-80.0
X137.1Y-81.2
X137.1Y-82.4
X137.35Y-103.8
X137.35Y-105.05
X137.35Y-106.3
X137.35Y-107.55
X137.95Y-84.29
X137.95Y-85.54
X138.0Y-109.5
X138.0Y-110.7
X138.3Y-77.6
X138.3Y-78.8
X138.3Y-80.0
X138.3Y-81.2
X138.3Y-82.4
X138.6Y-103.8
X138.6Y-105.05
X138.6Y-106.3
X138.6Y-107.55
X138.9Y-133.0
X139.2Y-109.5
X139.2Y-110.7
X139.438Y-90.65
X139.438Y-91.75
X139.438Y-92.85
X139.5Y-77.6
X139.5Y-78.8
X139.5Y-80.0
X139.5Y-81.2
X139.5Y-82.4
X140.4Y-109.5
X140.4Y-110.7
X140.537Y-90.65
X140.537Y-91.75
X140.537Y-92.85
X140.7Y-77.6
X141.3Y-133.0
X141.35Y-124.25
X141.35Y-125.488
X141.637Y-90.65
X141.637Y-91.75
X141.637Y-92.85
X141.65Y-115.15
X141.65Y-116.4
X141.65Y-117.65
X141.9Y-77.6
X142.55Y-124.25
X142.55Y-125.488
X142.737Y-90.65
X142.737Y-91.75
X142.737Y-92.85
X142.9Y-115.15
X142.9Y-116.4
X142.9Y-117.65
X142.9Y-145.2
X143.1Y-77.6
X143.1Y-78.8
X143.1Y-80.0
X143.1Y-81.2
X143.1Y-82.4
X143.75Y-124.25
X143.75Y-125.488
X143.8Y-94.0
X143.8Y-95.1
X143.8Y-96.2
X143.838Y-90.65
X143.838Y-91.75
X143.838Y-92.85
X144.15Y-115.15
X144.15Y-116.4
X144.15Y-117.65
X144.3Y-77.6
X144.3Y-78.8
X144.3Y-80.0
X144.3Y-81.2
X144.3Y-82.4
X144.9Y-94.0
X144.9Y-95.1
X144.9Y-96.2
X144.938Y-90.65
X144.938Y-91.75
X144.938Y-92.85
X144.95Y-124.25
X144.95Y-125.488
X145.4Y-115.15
X145.4Y-116.4
X145.4Y-117.65
X145.5Y-77.6
X146.0Y-94.0
X146.0Y-95.1
X146.0Y-96.2
X146.037Y-90.65
X146.037Y-91.75
X146.037Y-92.85
X146.15Y-124.25
X146.15Y-125.488
X146.85Y-145.9
T4
X65.86Y-88.75
X65.86Y-91.25
X67.86Y-88.75
X67.86Y-91.25
T5
X121.35Y-58.75
X124.35Y-57.3
X127.35Y-55.85
X130.35Y-54.4
T6
X70.86Y-193.0
X73.4Y-193.0
X77.2Y-82.5
X113.35Y-196.55
X115.5Y-157.6
X115.9Y-106.65
X120.6Y-192.8
X120.6Y-196.55
X120.7Y-116.0
X124.35Y-192.8
X124.35Y-196.55
X128.1Y-192.8
X128.1Y-196.55
X133.2Y-87.3
X133.2Y-194.0
X135.74Y-194.0
X136.5Y-95.2
X138.28Y-194.0
X138.35Y-124.938
X141.1Y-95.2
T7
X69.75Y-61.0
X69.75Y-69.0
X71.25Y-63.5
X71.25Y-66.5
X72.75Y-61.0
X72.75Y-69.0
X74.25Y-63.5
X74.25Y-66.5
X75.75Y-61.0
X75.75Y-69.0
X77.25Y-63.5
X77.25Y-66.5
X78.75Y-61.0
X78.75Y-69.0
X80.25Y-63.5
X80.25Y-66.5
X81.75Y-61.0
X81.75Y-69.0
X83.25Y-63.5
X83.25Y-66.5
X84.75Y-61.0
X84.75Y-69.0
X86.25Y-63.5
X86.25Y-66.5
X87.75Y-61.0
X87.75Y-69.0
X112.29Y-61.15
X112.29Y-69.15
X113.79Y-63.65
X113.79Y-66.65
X115.29Y-61.15
X115.29Y-69.15
X116.79Y-63.65
X116.79Y-66.65
X118.29Y-61.15
X118.29Y-69.15
X119.79Y-63.65
X119.79Y-66.65
X121.29Y-61.15
X121.29Y-69.15
X122.79Y-63.65
X122.79Y-66.65
X124.29Y-61.15
X124.29Y-69.15
X125.79Y-63.65
X125.79Y-66.65
X127.29Y-61.15
X127.29Y-69.15
X128.79Y-63.65
X128.79Y-66.65
X130.29Y-61.15
X130.29Y-69.15
T8
X63.15Y-83.98
X63.15Y-96.02
T9
X120.6Y-187.05
X144.8Y-187.05
T10
X54.5Y-54.5
X54.5Y-195.5
X145.5Y-54.5
X145.5Y-195.5
T11
X62.5Y-54.5
X95.0Y-54.5
X105.04Y-54.65
X137.54Y-54.65
M30
