%TF.GenerationSoftware,KiCad,Pcbnew,9.0.7*%
%TF.CreationDate,2026-03-18T19:39:04+00:00*%
%TF.ProjectId,NCU,4e43552e-6b69-4636-9164-5f7063625858,rev?*%
%TF.SameCoordinates,Original*%
%TF.FileFunction,Soldermask,Bot*%
%TF.FilePolarity,Negative*%
%FSLAX46Y46*%
G04 Gerber Fmt 4.6, Leading zero omitted, Abs format (unit mm)*
G04 Created by KiCad (PCBNEW 9.0.7) date 2026-03-18 19:39:04*
%MOMM*%
%LPD*%
G01*
G04 APERTURE LIST*
G04 Aperture macros list*
%AMFreePoly0*
4,1,23,0.500000,-0.750000,0.000000,-0.750000,0.000000,-0.745722,-0.065263,-0.745722,-0.191342,-0.711940,-0.304381,-0.646677,-0.396677,-0.554381,-0.461940,-0.441342,-0.495722,-0.315263,-0.495722,-0.250000,-0.500000,-0.250000,-0.500000,0.250000,-0.495722,0.250000,-0.495722,0.315263,-0.461940,0.441342,-0.396677,0.554381,-0.304381,0.646677,-0.191342,0.711940,-0.065263,0.745722,0.000000,0.745722,
0.000000,0.750000,0.500000,0.750000,0.500000,-0.750000,0.500000,-0.750000,$1*%
%AMFreePoly1*
4,1,23,0.000000,0.745722,0.065263,0.745722,0.191342,0.711940,0.304381,0.646677,0.396677,0.554381,0.461940,0.441342,0.495722,0.315263,0.495722,0.250000,0.500000,0.250000,0.500000,-0.250000,0.495722,-0.250000,0.495722,-0.315263,0.461940,-0.441342,0.396677,-0.554381,0.304381,-0.646677,0.191342,-0.711940,0.065263,-0.745722,0.000000,-0.745722,0.000000,-0.750000,-0.500000,-0.750000,
-0.500000,0.750000,0.000000,0.750000,0.000000,0.745722,0.000000,0.745722,$1*%
G04 Aperture macros list end*
%ADD10C,2.250000*%
%ADD11C,5.100000*%
%ADD12C,1.650000*%
%ADD13C,1.150000*%
%ADD14C,2.000000*%
%ADD15R,1.700000X1.700000*%
%ADD16C,1.700000*%
%ADD17C,6.400000*%
%ADD18C,3.500000*%
%ADD19FreePoly0,90.000000*%
%ADD20FreePoly1,90.000000*%
%ADD21FreePoly0,180.000000*%
%ADD22FreePoly1,180.000000*%
%ADD23FreePoly0,270.000000*%
%ADD24FreePoly1,270.000000*%
%ADD25C,5.400000*%
G04 APERTURE END LIST*
%TO.C,JP7*%
G36*
X105000000Y-157450000D02*
G01*
X103500000Y-157450000D01*
X103500000Y-157150000D01*
X105000000Y-157150000D01*
X105000000Y-157450000D01*
G37*
%TO.C,JP1*%
G36*
X56250000Y-66550000D02*
G01*
X55950000Y-66550000D01*
X55950000Y-68050000D01*
X56250000Y-68050000D01*
X56250000Y-66550000D01*
G37*
%TO.C,JP4*%
G36*
X56250000Y-59050000D02*
G01*
X55950000Y-59050000D01*
X55950000Y-60550000D01*
X56250000Y-60550000D01*
X56250000Y-59050000D01*
G37*
%TO.C,JP11*%
G36*
X122800000Y-116000000D02*
G01*
X124300000Y-116000000D01*
X124300000Y-116300000D01*
X122800000Y-116300000D01*
X122800000Y-116000000D01*
G37*
%TO.C,JP6*%
G36*
X101000000Y-157150000D02*
G01*
X102500000Y-157150000D01*
X102500000Y-157450000D01*
X101000000Y-157450000D01*
X101000000Y-157150000D01*
G37*
%TO.C,JP2*%
G36*
X56250000Y-64050000D02*
G01*
X55950000Y-64050000D01*
X55950000Y-65550000D01*
X56250000Y-65550000D01*
X56250000Y-64050000D01*
G37*
%TO.C,JP3*%
G36*
X56250000Y-61550000D02*
G01*
X55950000Y-61550000D01*
X55950000Y-63050000D01*
X56250000Y-63050000D01*
X56250000Y-61550000D01*
G37*
%TD*%
D10*
%TO.C,J1*%
X130290000Y-69150000D03*
X127290000Y-69150000D03*
X124290000Y-69150000D03*
X121290000Y-69150000D03*
X118290000Y-69150000D03*
X115290000Y-69150000D03*
X112290000Y-69150000D03*
X128790000Y-66650000D03*
X125790000Y-66650000D03*
X122790000Y-66650000D03*
X119790000Y-66650000D03*
X116790000Y-66650000D03*
X113790000Y-66650000D03*
X128790000Y-63650000D03*
X125790000Y-63650000D03*
X122790000Y-63650000D03*
X119790000Y-63650000D03*
X116790000Y-63650000D03*
X113790000Y-63650000D03*
X130290000Y-61150000D03*
X127290000Y-61150000D03*
X124290000Y-61150000D03*
X121290000Y-61150000D03*
X118290000Y-61150000D03*
X115290000Y-61150000D03*
X112290000Y-61150000D03*
D11*
X137540000Y-54650000D03*
X105040000Y-54650000D03*
%TD*%
D10*
%TO.C,J3*%
X87750000Y-69000000D03*
X84750000Y-69000000D03*
X81750000Y-69000000D03*
X78750000Y-69000000D03*
X75750000Y-69000000D03*
X72750000Y-69000000D03*
X69750000Y-69000000D03*
X86250000Y-66500000D03*
X83250000Y-66500000D03*
X80250000Y-66500000D03*
X77250000Y-66500000D03*
X74250000Y-66500000D03*
X71250000Y-66500000D03*
X86250000Y-63500000D03*
X83250000Y-63500000D03*
X80250000Y-63500000D03*
X77250000Y-63500000D03*
X74250000Y-63500000D03*
X71250000Y-63500000D03*
X87750000Y-61000000D03*
X84750000Y-61000000D03*
X81750000Y-61000000D03*
X78750000Y-61000000D03*
X75750000Y-61000000D03*
X72750000Y-61000000D03*
X69750000Y-61000000D03*
D11*
X95000000Y-54500000D03*
X62500000Y-54500000D03*
%TD*%
D12*
%TO.C,J7*%
X145200000Y-139000000D03*
D13*
X120200000Y-139000000D03*
%TD*%
D14*
%TO.C,TP1*%
X141100000Y-95200000D03*
%TD*%
%TO.C,TP3*%
X133200000Y-87300000D03*
%TD*%
%TO.C,TP2*%
X136500000Y-95200000D03*
%TD*%
D15*
%TO.C,J9*%
X138280000Y-194000000D03*
D16*
X135740000Y-194000000D03*
X133200000Y-194000000D03*
%TD*%
D17*
%TO.C,H3*%
X145500000Y-195500000D03*
%TD*%
D14*
%TO.C,TP6*%
X120700000Y-116000000D03*
%TD*%
%TO.C,TP14*%
X128100000Y-192800000D03*
%TD*%
D15*
%TO.C,J5*%
X70860000Y-193000000D03*
D16*
X73400000Y-193000000D03*
%TD*%
D14*
%TO.C,TP8*%
X115900000Y-106650000D03*
%TD*%
%TO.C,TP9*%
X138350000Y-124938000D03*
%TD*%
D15*
%TO.C,J2*%
X67860000Y-91250000D03*
D16*
X67860000Y-88750000D03*
X65860000Y-88750000D03*
X65860000Y-91250000D03*
D18*
X63150000Y-96020000D03*
X63150000Y-83980000D03*
%TD*%
D17*
%TO.C,H1*%
X145500000Y-54500000D03*
%TD*%
D14*
%TO.C,TP10*%
X120600000Y-192800000D03*
%TD*%
%TO.C,TP11*%
X120600000Y-196550000D03*
%TD*%
%TO.C,TP16*%
X124350000Y-192800000D03*
%TD*%
D17*
%TO.C,H4*%
X54500000Y-195500000D03*
%TD*%
D14*
%TO.C,TP17*%
X124350000Y-196550000D03*
%TD*%
%TO.C,TP4*%
X77200000Y-82500000D03*
%TD*%
%TO.C,TP18*%
X115500000Y-157600000D03*
%TD*%
%TO.C,TP15*%
X128100000Y-196550000D03*
%TD*%
D17*
%TO.C,H2*%
X54500000Y-54500000D03*
%TD*%
D14*
%TO.C,TP20*%
X113350000Y-196550000D03*
%TD*%
D19*
%TO.C,JP7*%
X104250000Y-157950000D03*
D20*
X104250000Y-156650000D03*
%TD*%
D21*
%TO.C,JP1*%
X56750000Y-67300000D03*
D22*
X55450000Y-67300000D03*
%TD*%
D21*
%TO.C,JP4*%
X56750000Y-59800000D03*
D22*
X55450000Y-59800000D03*
%TD*%
D23*
%TO.C,JP11*%
X123550000Y-115500000D03*
D24*
X123550000Y-116800000D03*
%TD*%
D23*
%TO.C,JP6*%
X101750000Y-156650000D03*
D24*
X101750000Y-157950000D03*
%TD*%
D21*
%TO.C,JP2*%
X56750000Y-64800000D03*
D22*
X55450000Y-64800000D03*
%TD*%
D21*
%TO.C,JP3*%
X56750000Y-62300000D03*
D22*
X55450000Y-62300000D03*
%TD*%
D25*
%TO.C,H6*%
X120600000Y-187050000D03*
%TD*%
%TO.C,H5*%
X144800000Y-187050000D03*
%TD*%
M02*
