%TF.GenerationSoftware,KiCad,Pcbnew,9.0.7*%
%TF.CreationDate,2026-03-19T17:18:43+00:00*%
%TF.ProjectId,NCU,4e43552e-6b69-4636-9164-5f7063625858,rev?*%
%TF.SameCoordinates,Original*%
%TF.FileFunction,Soldermask,Top*%
%TF.FilePolarity,Negative*%
%FSLAX46Y46*%
G04 Gerber Fmt 4.6, Leading zero omitted, Abs format (unit mm)*
G04 Created by KiCad (PCBNEW 9.0.7) date 2026-03-19 17:18:43*
%MOMM*%
%LPD*%
G01*
G04 APERTURE LIST*
G04 Aperture macros list*
%AMRoundRect*
0 Rectangle with rounded corners*
0 $1 Rounding radius*
0 $2 $3 $4 $5 $6 $7 $8 $9 X,Y pos of 4 corners*
0 Add a 4 corners polygon primitive as box body*
4,1,4,$2,$3,$4,$5,$6,$7,$8,$9,$2,$3,0*
0 Add four circle primitives for the rounded corners*
1,1,$1+$1,$2,$3*
1,1,$1+$1,$4,$5*
1,1,$1+$1,$6,$7*
1,1,$1+$1,$8,$9*
0 Add four rect primitives between the rounded corners*
20,1,$1+$1,$2,$3,$4,$5,0*
20,1,$1+$1,$4,$5,$6,$7,0*
20,1,$1+$1,$6,$7,$8,$9,0*
20,1,$1+$1,$8,$9,$2,$3,0*%
%AMFreePoly0*
4,1,23,0.500000,-0.750000,0.000000,-0.750000,0.000000,-0.745722,-0.065263,-0.745722,-0.191342,-0.711940,-0.304381,-0.646677,-0.396677,-0.554381,-0.461940,-0.441342,-0.495722,-0.315263,-0.495722,-0.250000,-0.500000,-0.250000,-0.500000,0.250000,-0.495722,0.250000,-0.495722,0.315263,-0.461940,0.441342,-0.396677,0.554381,-0.304381,0.646677,-0.191342,0.711940,-0.065263,0.745722,0.000000,0.745722,
0.000000,0.750000,0.500000,0.750000,0.500000,-0.750000,0.500000,-0.750000,$1*%
%AMFreePoly1*
4,1,23,0.000000,0.745722,0.065263,0.745722,0.191342,0.711940,0.304381,0.646677,0.396677,0.554381,0.461940,0.441342,0.495722,0.315263,0.495722,0.250000,0.500000,0.250000,0.500000,-0.250000,0.495722,-0.250000,0.495722,-0.315263,0.461940,-0.441342,0.396677,-0.554381,0.304381,-0.646677,0.191342,-0.711940,0.065263,-0.745722,0.000000,-0.745722,0.000000,-0.750000,-0.500000,-0.750000,
-0.500000,0.750000,0.000000,0.750000,0.000000,0.745722,0.000000,0.745722,$1*%
G04 Aperture macros list end*
%ADD10RoundRect,0.237500X-0.237500X0.250000X-0.237500X-0.250000X0.237500X-0.250000X0.237500X0.250000X0*%
%ADD11RoundRect,0.237500X-0.250000X-0.237500X0.250000X-0.237500X0.250000X0.237500X-0.250000X0.237500X0*%
%ADD12RoundRect,0.225000X-0.225000X-0.250000X0.225000X-0.250000X0.225000X0.250000X-0.225000X0.250000X0*%
%ADD13RoundRect,0.237500X0.237500X-0.300000X0.237500X0.300000X-0.237500X0.300000X-0.237500X-0.300000X0*%
%ADD14RoundRect,0.237500X0.250000X0.237500X-0.250000X0.237500X-0.250000X-0.237500X0.250000X-0.237500X0*%
%ADD15RoundRect,0.237500X0.237500X-0.287500X0.237500X0.287500X-0.237500X0.287500X-0.237500X-0.287500X0*%
%ADD16RoundRect,0.237500X0.237500X-0.250000X0.237500X0.250000X-0.237500X0.250000X-0.237500X-0.250000X0*%
%ADD17C,2.250000*%
%ADD18C,5.100000*%
%ADD19RoundRect,0.075000X-0.075000X0.662500X-0.075000X-0.662500X0.075000X-0.662500X0.075000X0.662500X0*%
%ADD20RoundRect,0.075000X-0.662500X0.075000X-0.662500X-0.075000X0.662500X-0.075000X0.662500X0.075000X0*%
%ADD21R,1.700000X1.700000*%
%ADD22C,1.700000*%
%ADD23R,1.525000X0.650000*%
%ADD24R,2.750000X4.100000*%
%ADD25RoundRect,0.237500X-0.237500X0.300000X-0.237500X-0.300000X0.237500X-0.300000X0.237500X0.300000X0*%
%ADD26RoundRect,0.237500X-0.300000X-0.237500X0.300000X-0.237500X0.300000X0.237500X-0.300000X0.237500X0*%
%ADD27RoundRect,0.237500X-0.237500X0.287500X-0.237500X-0.287500X0.237500X-0.287500X0.237500X0.287500X0*%
%ADD28RoundRect,0.250000X-0.800000X0.450000X-0.800000X-0.450000X0.800000X-0.450000X0.800000X0.450000X0*%
%ADD29RoundRect,0.175000X0.325000X-0.175000X0.325000X0.175000X-0.325000X0.175000X-0.325000X-0.175000X0*%
%ADD30RoundRect,0.150000X0.150000X-0.200000X0.150000X0.200000X-0.150000X0.200000X-0.150000X-0.200000X0*%
%ADD31R,1.250000X0.600000*%
%ADD32C,6.400000*%
%ADD33RoundRect,0.250000X-0.412500X-1.100000X0.412500X-1.100000X0.412500X1.100000X-0.412500X1.100000X0*%
%ADD34C,5.400000*%
%ADD35RoundRect,0.237500X0.300000X0.237500X-0.300000X0.237500X-0.300000X-0.237500X0.300000X-0.237500X0*%
%ADD36C,2.000000*%
%ADD37RoundRect,0.150000X-0.150000X0.512500X-0.150000X-0.512500X0.150000X-0.512500X0.150000X0.512500X0*%
%ADD38RoundRect,0.225000X0.250000X-0.225000X0.250000X0.225000X-0.250000X0.225000X-0.250000X-0.225000X0*%
%ADD39RoundRect,0.150000X-0.587500X-0.150000X0.587500X-0.150000X0.587500X0.150000X-0.587500X0.150000X0*%
%ADD40R,1.500000X0.300000*%
%ADD41R,2.800000X3.910000*%
%ADD42RoundRect,0.250000X3.000000X-0.540000X3.000000X0.540000X-3.000000X0.540000X-3.000000X-0.540000X0*%
%ADD43RoundRect,0.150000X-0.512500X-0.150000X0.512500X-0.150000X0.512500X0.150000X-0.512500X0.150000X0*%
%ADD44RoundRect,0.225000X-0.225000X-0.375000X0.225000X-0.375000X0.225000X0.375000X-0.225000X0.375000X0*%
%ADD45FreePoly0,0.000000*%
%ADD46FreePoly1,0.000000*%
%ADD47R,1.050000X0.400000*%
%ADD48R,0.200000X0.600000*%
%ADD49RoundRect,0.062500X-0.375000X-0.062500X0.375000X-0.062500X0.375000X0.062500X-0.375000X0.062500X0*%
%ADD50RoundRect,0.062500X-0.062500X-0.375000X0.062500X-0.375000X0.062500X0.375000X-0.062500X0.375000X0*%
%ADD51R,2.500000X2.500000*%
%ADD52RoundRect,0.150000X-0.825000X-0.150000X0.825000X-0.150000X0.825000X0.150000X-0.825000X0.150000X0*%
%ADD53RoundRect,0.175000X-0.325000X0.175000X-0.325000X-0.175000X0.325000X-0.175000X0.325000X0.175000X0*%
%ADD54RoundRect,0.150000X-0.150000X0.200000X-0.150000X-0.200000X0.150000X-0.200000X0.150000X0.200000X0*%
%ADD55R,0.750000X0.850000*%
%ADD56C,3.500000*%
%ADD57RoundRect,0.162500X0.625000X0.162500X-0.625000X0.162500X-0.625000X-0.162500X0.625000X-0.162500X0*%
%ADD58RoundRect,0.250000X0.412500X1.100000X-0.412500X1.100000X-0.412500X-1.100000X0.412500X-1.100000X0*%
%ADD59R,0.350000X0.500000*%
%ADD60R,0.450000X0.500000*%
%ADD61R,0.600000X0.500000*%
%ADD62R,0.800000X0.700000*%
%ADD63R,0.600000X0.600000*%
%ADD64R,1.900000X0.920000*%
%ADD65R,1.400000X1.200000*%
%ADD66R,1.020000X1.750000*%
%ADD67R,2.400000X0.520000*%
%ADD68R,1.250000X1.000000*%
%ADD69R,0.700000X0.600000*%
%ADD70C,1.650000*%
%ADD71C,1.150000*%
%ADD72R,0.600000X2.000000*%
%ADD73R,2.300000X3.200000*%
%ADD74FreePoly0,90.000000*%
%ADD75FreePoly1,90.000000*%
%ADD76R,1.200000X1.400000*%
%ADD77R,0.900000X1.500000*%
%ADD78R,0.800000X0.800000*%
%ADD79R,0.760000X2.400000*%
%ADD80RoundRect,0.250000X0.275000X0.350000X-0.275000X0.350000X-0.275000X-0.350000X0.275000X-0.350000X0*%
%ADD81R,1.060000X2.600000*%
%ADD82R,5.632000X5.700000*%
%ADD83R,3.400000X0.980000*%
%ADD84R,1.000000X1.800000*%
%ADD85R,1.500000X0.800000*%
%ADD86R,1.040000X1.000000*%
%ADD87R,1.900000X1.400000*%
%ADD88R,1.400000X1.300000*%
%ADD89RoundRect,0.237500X0.287500X0.237500X-0.287500X0.237500X-0.287500X-0.237500X0.287500X-0.237500X0*%
%ADD90RoundRect,0.250000X0.700000X-0.362500X0.700000X0.362500X-0.700000X0.362500X-0.700000X-0.362500X0*%
%ADD91R,0.775000X0.250000*%
%ADD92R,2.300000X0.250000*%
%ADD93R,0.250000X0.650000*%
%ADD94R,0.350000X0.525000*%
%ADD95R,0.300000X0.900000*%
%ADD96R,2.600000X1.400000*%
G04 APERTURE END LIST*
%TO.C,JP10*%
G36*
X117150000Y-195800000D02*
G01*
X117450000Y-195800000D01*
X117450000Y-197300000D01*
X117150000Y-197300000D01*
X117150000Y-195800000D01*
G37*
%TO.C,JP9*%
G36*
X117150000Y-192100000D02*
G01*
X117450000Y-192100000D01*
X117450000Y-193600000D01*
X117150000Y-193600000D01*
X117150000Y-192100000D01*
G37*
%TO.C,JP12*%
G36*
X114750000Y-154250000D02*
G01*
X116250000Y-154250000D01*
X116250000Y-153950000D01*
X114750000Y-153950000D01*
X114750000Y-154250000D01*
G37*
%TO.C,JP5*%
G36*
X110485000Y-178456300D02*
G01*
X110785000Y-178456300D01*
X110785000Y-179956300D01*
X110485000Y-179956300D01*
X110485000Y-178456300D01*
G37*
%TD*%
D10*
%TO.C,R72*%
X139300000Y-129087500D03*
X139300000Y-130912500D03*
%TD*%
D11*
%TO.C,R40*%
X87175000Y-100094000D03*
X89000000Y-100094000D03*
%TD*%
D12*
%TO.C,C68*%
X124687500Y-87250000D03*
X126237500Y-87250000D03*
%TD*%
D11*
%TO.C,R11*%
X67400000Y-152737500D03*
X69225000Y-152737500D03*
%TD*%
D13*
%TO.C,C35*%
X112000000Y-154962500D03*
X112000000Y-153237500D03*
%TD*%
D14*
%TO.C,R20*%
X99296454Y-88225156D03*
X97471454Y-88225156D03*
%TD*%
D15*
%TO.C,D5*%
X58700000Y-157550000D03*
X58700000Y-155800000D03*
%TD*%
D14*
%TO.C,R7*%
X75750000Y-143437500D03*
X73925000Y-143437500D03*
%TD*%
D16*
%TO.C,R66*%
X66300000Y-193312500D03*
X66300000Y-191487500D03*
%TD*%
D17*
%TO.C,J3*%
X87750000Y-69000000D03*
X84750000Y-69000000D03*
X81750000Y-69000000D03*
X78750000Y-69000000D03*
X75750000Y-69000000D03*
X72750000Y-69000000D03*
X69750000Y-69000000D03*
X86250000Y-66500000D03*
X83250000Y-66500000D03*
X80250000Y-66500000D03*
X77250000Y-66500000D03*
X74250000Y-66500000D03*
X71250000Y-66500000D03*
X86250000Y-63500000D03*
X83250000Y-63500000D03*
X80250000Y-63500000D03*
X77250000Y-63500000D03*
X74250000Y-63500000D03*
X71250000Y-63500000D03*
X87750000Y-61000000D03*
X84750000Y-61000000D03*
X81750000Y-61000000D03*
X78750000Y-61000000D03*
X75750000Y-61000000D03*
X72750000Y-61000000D03*
X69750000Y-61000000D03*
D18*
X95000000Y-54500000D03*
X62500000Y-54500000D03*
%TD*%
D19*
%TO.C,U7*%
X106750000Y-149337500D03*
X106250000Y-149337500D03*
X105750000Y-149337500D03*
X105250000Y-149337500D03*
X104750000Y-149337500D03*
X104250000Y-149337500D03*
X103750000Y-149337500D03*
X103250000Y-149337500D03*
X102750000Y-149337500D03*
X102250000Y-149337500D03*
X101750000Y-149337500D03*
X101250000Y-149337500D03*
X100750000Y-149337500D03*
X100250000Y-149337500D03*
X99750000Y-149337500D03*
X99250000Y-149337500D03*
X98750000Y-149337500D03*
X98250000Y-149337500D03*
X97750000Y-149337500D03*
X97250000Y-149337500D03*
X96750000Y-149337500D03*
X96250000Y-149337500D03*
X95750000Y-149337500D03*
X95250000Y-149337500D03*
X94750000Y-149337500D03*
X94250000Y-149337500D03*
X93750000Y-149337500D03*
X93250000Y-149337500D03*
X92750000Y-149337500D03*
X92250000Y-149337500D03*
X91750000Y-149337500D03*
X91250000Y-149337500D03*
X90750000Y-149337500D03*
X90250000Y-149337500D03*
X89750000Y-149337500D03*
X89250000Y-149337500D03*
D20*
X87337500Y-151250000D03*
X87337500Y-151750000D03*
X87337500Y-152250000D03*
X87337500Y-152750000D03*
X87337500Y-153250000D03*
X87337500Y-153750000D03*
X87337500Y-154250000D03*
X87337500Y-154750000D03*
X87337500Y-155250000D03*
X87337500Y-155750000D03*
X87337500Y-156250000D03*
X87337500Y-156750000D03*
X87337500Y-157250000D03*
X87337500Y-157750000D03*
X87337500Y-158250000D03*
X87337500Y-158750000D03*
X87337500Y-159250000D03*
X87337500Y-159750000D03*
X87337500Y-160250000D03*
X87337500Y-160750000D03*
X87337500Y-161250000D03*
X87337500Y-161750000D03*
X87337500Y-162250000D03*
X87337500Y-162750000D03*
X87337500Y-163250000D03*
X87337500Y-163750000D03*
X87337500Y-164250000D03*
X87337500Y-164750000D03*
X87337500Y-165250000D03*
X87337500Y-165750000D03*
X87337500Y-166250000D03*
X87337500Y-166750000D03*
X87337500Y-167250000D03*
X87337500Y-167750000D03*
X87337500Y-168250000D03*
X87337500Y-168750000D03*
D19*
X89250000Y-170662500D03*
X89750000Y-170662500D03*
X90250000Y-170662500D03*
X90750000Y-170662500D03*
X91250000Y-170662500D03*
X91750000Y-170662500D03*
X92250000Y-170662500D03*
X92750000Y-170662500D03*
X93250000Y-170662500D03*
X93750000Y-170662500D03*
X94250000Y-170662500D03*
X94750000Y-170662500D03*
X95250000Y-170662500D03*
X95750000Y-170662500D03*
X96250000Y-170662500D03*
X96750000Y-170662500D03*
X97250000Y-170662500D03*
X97750000Y-170662500D03*
X98250000Y-170662500D03*
X98750000Y-170662500D03*
X99250000Y-170662500D03*
X99750000Y-170662500D03*
X100250000Y-170662500D03*
X100750000Y-170662500D03*
X101250000Y-170662500D03*
X101750000Y-170662500D03*
X102250000Y-170662500D03*
X102750000Y-170662500D03*
X103250000Y-170662500D03*
X103750000Y-170662500D03*
X104250000Y-170662500D03*
X104750000Y-170662500D03*
X105250000Y-170662500D03*
X105750000Y-170662500D03*
X106250000Y-170662500D03*
X106750000Y-170662500D03*
D20*
X108662500Y-168750000D03*
X108662500Y-168250000D03*
X108662500Y-167750000D03*
X108662500Y-167250000D03*
X108662500Y-166750000D03*
X108662500Y-166250000D03*
X108662500Y-165750000D03*
X108662500Y-165250000D03*
X108662500Y-164750000D03*
X108662500Y-164250000D03*
X108662500Y-163750000D03*
X108662500Y-163250000D03*
X108662500Y-162750000D03*
X108662500Y-162250000D03*
X108662500Y-161750000D03*
X108662500Y-161250000D03*
X108662500Y-160750000D03*
X108662500Y-160250000D03*
X108662500Y-159750000D03*
X108662500Y-159250000D03*
X108662500Y-158750000D03*
X108662500Y-158250000D03*
X108662500Y-157750000D03*
X108662500Y-157250000D03*
X108662500Y-156750000D03*
X108662500Y-156250000D03*
X108662500Y-155750000D03*
X108662500Y-155250000D03*
X108662500Y-154750000D03*
X108662500Y-154250000D03*
X108662500Y-153750000D03*
X108662500Y-153250000D03*
X108662500Y-152750000D03*
X108662500Y-152250000D03*
X108662500Y-151750000D03*
X108662500Y-151250000D03*
%TD*%
D16*
%TO.C,R8*%
X57150000Y-160975000D03*
X57150000Y-159150000D03*
%TD*%
D21*
%TO.C,J9*%
X138280000Y-194000000D03*
D22*
X135740000Y-194000000D03*
X133200000Y-194000000D03*
%TD*%
D23*
%TO.C,S3*%
X101184454Y-96460077D03*
X101184454Y-97730077D03*
X101184454Y-99000077D03*
X101184454Y-100270077D03*
X106608454Y-100270077D03*
X106608454Y-99000077D03*
X106608454Y-97730077D03*
X106608454Y-96460077D03*
D24*
X103896454Y-98365077D03*
%TD*%
D17*
%TO.C,J1*%
X130250000Y-69000000D03*
X127250000Y-69000000D03*
X124250000Y-69000000D03*
X121250000Y-69000000D03*
X118250000Y-69000000D03*
X115250000Y-69000000D03*
X112250000Y-69000000D03*
X128750000Y-66500000D03*
X125750000Y-66500000D03*
X122750000Y-66500000D03*
X119750000Y-66500000D03*
X116750000Y-66500000D03*
X113750000Y-66500000D03*
X128750000Y-63500000D03*
X125750000Y-63500000D03*
X122750000Y-63500000D03*
X119750000Y-63500000D03*
X116750000Y-63500000D03*
X113750000Y-63500000D03*
X130250000Y-61000000D03*
X127250000Y-61000000D03*
X124250000Y-61000000D03*
X121250000Y-61000000D03*
X118250000Y-61000000D03*
X115250000Y-61000000D03*
X112250000Y-61000000D03*
D18*
X137500000Y-54500000D03*
X105000000Y-54500000D03*
%TD*%
D11*
%TO.C,R98*%
X113750000Y-84150000D03*
X115575000Y-84150000D03*
%TD*%
D25*
%TO.C,C33*%
X84900000Y-148037500D03*
X84900000Y-149762500D03*
%TD*%
D14*
%TO.C,R24*%
X120387500Y-90800000D03*
X118562500Y-90800000D03*
%TD*%
%TO.C,R47*%
X89012500Y-110594000D03*
X87187500Y-110594000D03*
%TD*%
D26*
%TO.C,C89*%
X94037500Y-138700000D03*
X95762500Y-138700000D03*
%TD*%
D27*
%TO.C,D1*%
X126050000Y-89700000D03*
X126050000Y-91450000D03*
%TD*%
D28*
%TO.C,U6*%
X137237500Y-87350000D03*
X137237500Y-91750000D03*
%TD*%
D14*
%TO.C,R119*%
X125112500Y-112250000D03*
X123287500Y-112250000D03*
%TD*%
D25*
%TO.C,C38*%
X83900000Y-168975000D03*
X83900000Y-170700000D03*
%TD*%
D11*
%TO.C,R27*%
X113662500Y-92400000D03*
X115487500Y-92400000D03*
%TD*%
D10*
%TO.C,R117*%
X135050000Y-114887500D03*
X135050000Y-116712500D03*
%TD*%
D12*
%TO.C,C69*%
X124712500Y-85750000D03*
X126262500Y-85750000D03*
%TD*%
D26*
%TO.C,C22*%
X94075000Y-142600000D03*
X95800000Y-142600000D03*
%TD*%
D29*
%TO.C,D28*%
X71350000Y-119600000D03*
D30*
X73050000Y-119600000D03*
X73050000Y-117600000D03*
X71150000Y-117600000D03*
%TD*%
D26*
%TO.C,C27*%
X99800000Y-173200000D03*
X101525000Y-173200000D03*
%TD*%
%TO.C,C5*%
X74937500Y-154937500D03*
X76662500Y-154937500D03*
%TD*%
D25*
%TO.C,C87*%
X67369500Y-76457500D03*
X67369500Y-78182500D03*
%TD*%
D31*
%TO.C,IC3*%
X99675000Y-185665000D03*
X99675000Y-183765000D03*
X97575000Y-184715000D03*
%TD*%
D32*
%TO.C,H3*%
X145500000Y-195500000D03*
%TD*%
D14*
%TO.C,R87*%
X99279626Y-81650000D03*
X97454626Y-81650000D03*
%TD*%
%TO.C,R6*%
X75750000Y-147137500D03*
X73925000Y-147137500D03*
%TD*%
%TO.C,R12*%
X78918802Y-163637500D03*
X77093802Y-163637500D03*
%TD*%
D26*
%TO.C,C17*%
X99800000Y-176200000D03*
X101525000Y-176200000D03*
%TD*%
D13*
%TO.C,C59*%
X124950000Y-130862500D03*
X124950000Y-129137500D03*
%TD*%
D33*
%TO.C,C79*%
X132731250Y-98300000D03*
X135856250Y-98300000D03*
%TD*%
D34*
%TO.C,H6*%
X120600000Y-187050000D03*
%TD*%
D14*
%TO.C,R77*%
X85650000Y-79144000D03*
X83825000Y-79144000D03*
%TD*%
D26*
%TO.C,C2*%
X60225000Y-152837500D03*
X61950000Y-152837500D03*
%TD*%
D13*
%TO.C,C62*%
X126450000Y-130862500D03*
X126450000Y-129137500D03*
%TD*%
D14*
%TO.C,R34*%
X99981750Y-118510000D03*
X98156750Y-118510000D03*
%TD*%
D26*
%TO.C,C52*%
X83887500Y-86644000D03*
X85612500Y-86644000D03*
%TD*%
D10*
%TO.C,R43*%
X72300000Y-100975000D03*
X72300000Y-102800000D03*
%TD*%
D14*
%TO.C,R67*%
X85662500Y-92644000D03*
X83837500Y-92644000D03*
%TD*%
%TO.C,R13*%
X78931302Y-165137500D03*
X77106302Y-165137500D03*
%TD*%
%TO.C,R102*%
X115575000Y-80350000D03*
X113750000Y-80350000D03*
%TD*%
D11*
%TO.C,R29*%
X113675000Y-100700000D03*
X115500000Y-100700000D03*
%TD*%
D25*
%TO.C,C57*%
X60300000Y-191537500D03*
X60300000Y-193262500D03*
%TD*%
D35*
%TO.C,C88*%
X120109067Y-106250000D03*
X118384067Y-106250000D03*
%TD*%
D10*
%TO.C,R45*%
X70800000Y-100975000D03*
X70800000Y-102800000D03*
%TD*%
D23*
%TO.C,S2*%
X101179626Y-80050000D03*
X101179626Y-81320000D03*
X101179626Y-82590000D03*
X101179626Y-83860000D03*
X106603626Y-83860000D03*
X106603626Y-82590000D03*
X106603626Y-81320000D03*
X106603626Y-80050000D03*
D24*
X103891626Y-81955000D03*
%TD*%
D16*
%TO.C,R38*%
X73800000Y-114825000D03*
X73800000Y-113000000D03*
%TD*%
%TO.C,R65*%
X64800000Y-193325000D03*
X64800000Y-191500000D03*
%TD*%
D25*
%TO.C,C36*%
X86400000Y-148037500D03*
X86400000Y-149762500D03*
%TD*%
D26*
%TO.C,C50*%
X83925000Y-109094000D03*
X85650000Y-109094000D03*
%TD*%
D36*
%TO.C,TP6*%
X120700000Y-116000000D03*
%TD*%
D37*
%TO.C,U2*%
X60700000Y-76062500D03*
X59750000Y-76062500D03*
X58800000Y-76062500D03*
X58800000Y-78337500D03*
X59750000Y-78337500D03*
X60700000Y-78337500D03*
%TD*%
D38*
%TO.C,C72*%
X88300000Y-191975000D03*
X88300000Y-190425000D03*
%TD*%
D14*
%TO.C,R5*%
X75750000Y-149737500D03*
X73925000Y-149737500D03*
%TD*%
D13*
%TO.C,C31*%
X110500000Y-150062500D03*
X110500000Y-148337500D03*
%TD*%
D25*
%TO.C,C7*%
X68300000Y-159775000D03*
X68300000Y-161500000D03*
%TD*%
D11*
%TO.C,R23*%
X97483954Y-91425156D03*
X99308954Y-91425156D03*
%TD*%
D36*
%TO.C,TP14*%
X128100000Y-192800000D03*
%TD*%
D39*
%TO.C,D16*%
X81112500Y-84294000D03*
X81112500Y-86194000D03*
X82987500Y-85244000D03*
%TD*%
D26*
%TO.C,C12*%
X83912500Y-104594000D03*
X85637500Y-104594000D03*
%TD*%
D21*
%TO.C,J5*%
X70860000Y-193000000D03*
D22*
X73400000Y-193000000D03*
%TD*%
D11*
%TO.C,R120*%
X123287500Y-113750000D03*
X125112500Y-113750000D03*
%TD*%
D40*
%TO.C,IC4*%
X120587500Y-80550000D03*
X120587500Y-81050000D03*
X120587500Y-81550000D03*
X120587500Y-82050000D03*
X120587500Y-82550000D03*
X120587500Y-83050000D03*
X120587500Y-83550000D03*
X120587500Y-84050000D03*
X125987500Y-84050000D03*
X125987500Y-83550000D03*
X125987500Y-83050000D03*
X125987500Y-82550000D03*
X125987500Y-82050000D03*
X125987500Y-81550000D03*
X125987500Y-81050000D03*
X125987500Y-80550000D03*
D41*
X123287500Y-82300000D03*
%TD*%
D42*
%TO.C,L2*%
X131393750Y-110060000D03*
X131393750Y-105540000D03*
%TD*%
D15*
%TO.C,D2*%
X140050000Y-115025000D03*
X140050000Y-113275000D03*
%TD*%
D16*
%TO.C,R111*%
X146400000Y-109912500D03*
X146400000Y-108087500D03*
%TD*%
D14*
%TO.C,R94*%
X120487500Y-77350000D03*
X118662500Y-77350000D03*
%TD*%
D39*
%TO.C,D15*%
X81187500Y-93244000D03*
X81187500Y-95144000D03*
X83062500Y-94194000D03*
%TD*%
D36*
%TO.C,TP8*%
X115900000Y-106650000D03*
%TD*%
D16*
%TO.C,R44*%
X70800000Y-114825000D03*
X70800000Y-113000000D03*
%TD*%
D26*
%TO.C,C86*%
X76595000Y-75305000D03*
X78320000Y-75305000D03*
%TD*%
D25*
%TO.C,C94*%
X119400000Y-145887500D03*
X119400000Y-147612500D03*
%TD*%
%TO.C,C28*%
X105737500Y-173637500D03*
X105737500Y-175362500D03*
%TD*%
D23*
%TO.C,IC8*%
X69245500Y-75400000D03*
X69245500Y-76670000D03*
X69245500Y-77940000D03*
X69245500Y-79210000D03*
X74669500Y-79210000D03*
X74669500Y-77940000D03*
X74669500Y-76670000D03*
X74669500Y-75400000D03*
%TD*%
D11*
%TO.C,R97*%
X113750000Y-78850000D03*
X115575000Y-78850000D03*
%TD*%
D16*
%TO.C,R36*%
X73800000Y-109825000D03*
X73800000Y-108000000D03*
%TD*%
D34*
%TO.C,H5*%
X144800000Y-187050000D03*
%TD*%
D25*
%TO.C,C37*%
X82400000Y-168975000D03*
X82400000Y-170700000D03*
%TD*%
D33*
%TO.C,C78*%
X132731250Y-101700000D03*
X135856250Y-101700000D03*
%TD*%
D14*
%TO.C,R50*%
X88975000Y-97094000D03*
X87150000Y-97094000D03*
%TD*%
D23*
%TO.C,S4*%
X101162256Y-104675738D03*
X101162256Y-105945738D03*
X101162256Y-107215738D03*
X101162256Y-108485738D03*
X106586256Y-108485738D03*
X106586256Y-107215738D03*
X106586256Y-105945738D03*
X106586256Y-104675738D03*
D24*
X103874256Y-106580738D03*
%TD*%
D26*
%TO.C,C63*%
X83875000Y-77644000D03*
X85600000Y-77644000D03*
%TD*%
D13*
%TO.C,C47*%
X70800000Y-109800000D03*
X70800000Y-108075000D03*
%TD*%
D14*
%TO.C,R39*%
X89012500Y-101594000D03*
X87187500Y-101594000D03*
%TD*%
%TO.C,R26*%
X120387500Y-92300000D03*
X118562500Y-92300000D03*
%TD*%
%TO.C,R122*%
X120150000Y-104750000D03*
X118325000Y-104750000D03*
%TD*%
D39*
%TO.C,D6*%
X81175000Y-102244000D03*
X81175000Y-104144000D03*
X83050000Y-103194000D03*
%TD*%
D11*
%TO.C,R99*%
X113750000Y-87150000D03*
X115575000Y-87150000D03*
%TD*%
D16*
%TO.C,R73*%
X130350000Y-130900000D03*
X130350000Y-129075000D03*
%TD*%
D43*
%TO.C,D27*%
X115000000Y-178006300D03*
X115000000Y-178956300D03*
X115000000Y-179906300D03*
X117275000Y-179906300D03*
X117275000Y-178006300D03*
%TD*%
D25*
%TO.C,C30*%
X111500000Y-159900000D03*
X111500000Y-161625000D03*
%TD*%
D11*
%TO.C,R51*%
X87150000Y-95594000D03*
X88975000Y-95594000D03*
%TD*%
D37*
%TO.C,U1*%
X64300000Y-76062500D03*
X63350000Y-76062500D03*
X62400000Y-76062500D03*
X62400000Y-78337500D03*
X63350000Y-78337500D03*
X64300000Y-78337500D03*
%TD*%
D44*
%TO.C,D23*%
X113012500Y-82250000D03*
X116312500Y-82250000D03*
%TD*%
D26*
%TO.C,C18*%
X94037500Y-145018750D03*
X95762500Y-145018750D03*
%TD*%
D14*
%TO.C,R84*%
X108269250Y-118510000D03*
X106444250Y-118510000D03*
%TD*%
%TO.C,R22*%
X99308954Y-86625156D03*
X97483954Y-86625156D03*
%TD*%
D13*
%TO.C,C40*%
X112000000Y-150062500D03*
X112000000Y-148337500D03*
%TD*%
D26*
%TO.C,C44*%
X98194250Y-117000000D03*
X99919250Y-117000000D03*
%TD*%
%TO.C,C51*%
X83900000Y-95594000D03*
X85625000Y-95594000D03*
%TD*%
D39*
%TO.C,D22*%
X103719250Y-114610000D03*
X103719250Y-116510000D03*
X105594250Y-115560000D03*
%TD*%
D13*
%TO.C,C90*%
X90850000Y-142300000D03*
X90850000Y-140575000D03*
%TD*%
D35*
%TO.C,C92*%
X89762500Y-139050000D03*
X88037500Y-139050000D03*
%TD*%
D14*
%TO.C,R53*%
X88975000Y-88144000D03*
X87150000Y-88144000D03*
%TD*%
D36*
%TO.C,TP9*%
X138350000Y-124938000D03*
%TD*%
D35*
%TO.C,C39*%
X89762500Y-145400000D03*
X88037500Y-145400000D03*
%TD*%
D14*
%TO.C,R32*%
X115475000Y-93900000D03*
X113650000Y-93900000D03*
%TD*%
D45*
%TO.C,JP10*%
X116650000Y-196550000D03*
D46*
X117950000Y-196550000D03*
%TD*%
D43*
%TO.C,D3*%
X57312500Y-136907500D03*
X57312500Y-137857500D03*
X57312500Y-138807500D03*
X59587500Y-138807500D03*
X59587500Y-136907500D03*
%TD*%
D47*
%TO.C,IC9*%
X120334067Y-108950000D03*
X120334067Y-109650000D03*
D48*
X120259067Y-110450000D03*
X120759067Y-110450000D03*
X121259067Y-110450000D03*
X121759067Y-110450000D03*
D47*
X121684067Y-109650000D03*
X121684067Y-108950000D03*
D48*
X121759067Y-108150000D03*
X121259067Y-108150000D03*
X120759067Y-108150000D03*
X120259067Y-108150000D03*
%TD*%
D49*
%TO.C,U3*%
X69812500Y-156150000D03*
X69812500Y-156650000D03*
X69812500Y-157150000D03*
X69812500Y-157650000D03*
X69812500Y-158150000D03*
X69812500Y-158650000D03*
D50*
X70500000Y-159337500D03*
X71000000Y-159337500D03*
X71500000Y-159337500D03*
X72000000Y-159337500D03*
X72500000Y-159337500D03*
X73000000Y-159337500D03*
D49*
X73687500Y-158650000D03*
X73687500Y-158150000D03*
X73687500Y-157650000D03*
X73687500Y-157150000D03*
X73687500Y-156650000D03*
X73687500Y-156150000D03*
D50*
X73000000Y-155462500D03*
X72500000Y-155462500D03*
X72000000Y-155462500D03*
X71500000Y-155462500D03*
X71000000Y-155462500D03*
X70500000Y-155462500D03*
D51*
X71750000Y-157400000D03*
%TD*%
D35*
%TO.C,C20*%
X89762500Y-143900000D03*
X88037500Y-143900000D03*
%TD*%
D52*
%TO.C,U5*%
X90450000Y-189460000D03*
X90450000Y-190730000D03*
X90450000Y-192000000D03*
X90450000Y-193270000D03*
X95400000Y-193270000D03*
X95400000Y-192000000D03*
X95400000Y-190730000D03*
X95400000Y-189460000D03*
%TD*%
D14*
%TO.C,R16*%
X78937500Y-157637500D03*
X77112500Y-157637500D03*
%TD*%
D12*
%TO.C,C96*%
X70600000Y-88100000D03*
X72150000Y-88100000D03*
%TD*%
%TO.C,C43*%
X124625000Y-99200000D03*
X126175000Y-99200000D03*
%TD*%
D26*
%TO.C,C53*%
X83875000Y-82144000D03*
X85600000Y-82144000D03*
%TD*%
%TO.C,C13*%
X104737500Y-143600000D03*
X106462500Y-143600000D03*
%TD*%
D53*
%TO.C,D13*%
X72850000Y-126700000D03*
D54*
X71150000Y-126700000D03*
X71150000Y-128700000D03*
X73050000Y-128700000D03*
%TD*%
D55*
%TO.C,Y3*%
X88200000Y-140800000D03*
X88200000Y-142150000D03*
X89250000Y-142150000D03*
X89250000Y-140800000D03*
%TD*%
D11*
%TO.C,R103*%
X113750000Y-77350000D03*
X115575000Y-77350000D03*
%TD*%
D35*
%TO.C,C16*%
X99462500Y-140318750D03*
X97737500Y-140318750D03*
%TD*%
D26*
%TO.C,C64*%
X83925000Y-113594000D03*
X85650000Y-113594000D03*
%TD*%
D14*
%TO.C,R81*%
X89000000Y-115094000D03*
X87175000Y-115094000D03*
%TD*%
D45*
%TO.C,JP9*%
X116650000Y-192850000D03*
D46*
X117950000Y-192850000D03*
%TD*%
D35*
%TO.C,C41*%
X89762500Y-146900000D03*
X88037500Y-146900000D03*
%TD*%
D16*
%TO.C,R37*%
X72300000Y-114825000D03*
X72300000Y-113000000D03*
%TD*%
D21*
%TO.C,J2*%
X67860000Y-91250000D03*
D22*
X67860000Y-88750000D03*
X65860000Y-88750000D03*
X65860000Y-91250000D03*
D56*
X63150000Y-96020000D03*
X63150000Y-83980000D03*
%TD*%
D13*
%TO.C,C49*%
X74650000Y-128500000D03*
X74650000Y-126775000D03*
%TD*%
D26*
%TO.C,C45*%
X106494250Y-121510000D03*
X108219250Y-121510000D03*
%TD*%
D14*
%TO.C,R2*%
X143412500Y-113250000D03*
X141587500Y-113250000D03*
%TD*%
D11*
%TO.C,R112*%
X144481250Y-102800000D03*
X146306250Y-102800000D03*
%TD*%
D14*
%TO.C,R63*%
X88962500Y-92644000D03*
X87137500Y-92644000D03*
%TD*%
%TO.C,R108*%
X99981750Y-123010000D03*
X98156750Y-123010000D03*
%TD*%
D37*
%TO.C,D10*%
X72550000Y-96062500D03*
X71600000Y-96062500D03*
X70650000Y-96062500D03*
X70650000Y-98337500D03*
X72550000Y-98337500D03*
%TD*%
D11*
%TO.C,R28*%
X113662500Y-97700000D03*
X115487500Y-97700000D03*
%TD*%
D32*
%TO.C,H1*%
X145500000Y-54500000D03*
%TD*%
D26*
%TO.C,C70*%
X98206750Y-121510000D03*
X99931750Y-121510000D03*
%TD*%
D11*
%TO.C,R18*%
X87175000Y-104594000D03*
X89000000Y-104594000D03*
%TD*%
D26*
%TO.C,C56*%
X83887500Y-91144000D03*
X85612500Y-91144000D03*
%TD*%
D36*
%TO.C,TP10*%
X120600000Y-192800000D03*
%TD*%
D14*
%TO.C,R105*%
X99286756Y-106280738D03*
X97461756Y-106280738D03*
%TD*%
D12*
%TO.C,C42*%
X124625000Y-100700000D03*
X126175000Y-100700000D03*
%TD*%
D11*
%TO.C,R31*%
X113662500Y-99200000D03*
X115487500Y-99200000D03*
%TD*%
D14*
%TO.C,R42*%
X85687500Y-101594000D03*
X83862500Y-101594000D03*
%TD*%
D57*
%TO.C,TR1*%
X69125000Y-149737500D03*
X69125000Y-148467500D03*
X69125000Y-147197500D03*
X69125000Y-145927500D03*
X69125000Y-144657500D03*
X69125000Y-143387500D03*
X69125000Y-142117500D03*
X69125000Y-140847500D03*
X60600000Y-140847500D03*
X60600000Y-142117500D03*
X60600000Y-143387500D03*
X60600000Y-144657500D03*
X60600000Y-145927500D03*
X60600000Y-147197500D03*
X60600000Y-148467500D03*
X60600000Y-149737500D03*
%TD*%
D58*
%TO.C,C73*%
X141056250Y-98300000D03*
X137931250Y-98300000D03*
%TD*%
D59*
%TO.C,J6*%
X53665000Y-128540000D03*
X53665000Y-125840000D03*
X53665000Y-123140000D03*
D60*
X59835000Y-128130000D03*
X59835000Y-125590000D03*
X59835000Y-123050000D03*
D61*
X58260000Y-129020000D03*
X58260000Y-126320000D03*
X58260000Y-123620000D03*
X65030000Y-128610000D03*
X65030000Y-126070000D03*
X65030000Y-123530000D03*
D62*
X68340000Y-118310000D03*
D63*
X68890000Y-127420000D03*
D64*
X53890000Y-118420000D03*
D65*
X67040000Y-118910000D03*
D66*
X68830000Y-125750000D03*
D67*
X64850000Y-132800000D03*
D68*
X53565000Y-132560000D03*
D69*
X68990000Y-129220000D03*
%TD*%
D70*
%TO.C,J7*%
X145200000Y-139000000D03*
D71*
X120200000Y-139000000D03*
D72*
X144500000Y-134900000D03*
X144100000Y-143100000D03*
X143700000Y-134900000D03*
X143300000Y-143100000D03*
X142900000Y-134900000D03*
X142500000Y-143100000D03*
X142100000Y-134900000D03*
X141700000Y-143100000D03*
X141300000Y-134900000D03*
X140900000Y-143100000D03*
X140500000Y-134900000D03*
X140100000Y-143100000D03*
X139700000Y-134900000D03*
X139300000Y-143100000D03*
X138900000Y-134900000D03*
X138500000Y-143100000D03*
X134900000Y-134900000D03*
X134500000Y-143100000D03*
X134100000Y-134900000D03*
X133700000Y-143100000D03*
X133300000Y-134900000D03*
X132900000Y-143100000D03*
X132500000Y-134900000D03*
X132100000Y-143100000D03*
X131700000Y-134900000D03*
X131300000Y-143100000D03*
X130900000Y-134900000D03*
X130500000Y-143100000D03*
X130100000Y-134900000D03*
X129700000Y-143100000D03*
X129300000Y-134900000D03*
X128900000Y-143100000D03*
X128500000Y-134900000D03*
X128100000Y-143100000D03*
X127700000Y-134900000D03*
X127300000Y-143100000D03*
X126900000Y-134900000D03*
X126500000Y-143100000D03*
X126100000Y-134900000D03*
X125700000Y-143100000D03*
X125300000Y-134900000D03*
X124900000Y-143100000D03*
X124500000Y-134900000D03*
X124100000Y-143100000D03*
X123700000Y-134900000D03*
X123300000Y-143100000D03*
X122900000Y-134900000D03*
X122500000Y-143100000D03*
X122100000Y-134900000D03*
X121700000Y-143100000D03*
X121300000Y-134900000D03*
X120900000Y-143100000D03*
D73*
X147350000Y-135500000D03*
X118050000Y-135500000D03*
%TD*%
D25*
%TO.C,C54*%
X61800000Y-191575000D03*
X61800000Y-193300000D03*
%TD*%
D10*
%TO.C,R41*%
X73800000Y-100975000D03*
X73800000Y-102800000D03*
%TD*%
%TO.C,R59*%
X74200000Y-167187500D03*
X74200000Y-169012500D03*
%TD*%
D15*
%TO.C,FB2*%
X83400000Y-149775000D03*
X83400000Y-148025000D03*
%TD*%
D14*
%TO.C,R58*%
X85650000Y-83644000D03*
X83825000Y-83644000D03*
%TD*%
D13*
%TO.C,C93*%
X105500000Y-137650000D03*
X105500000Y-135925000D03*
%TD*%
D74*
%TO.C,JP12*%
X115500000Y-154750000D03*
D75*
X115500000Y-153450000D03*
%TD*%
D14*
%TO.C,R52*%
X85675000Y-97094000D03*
X83850000Y-97094000D03*
%TD*%
D76*
%TO.C,Y1*%
X64300000Y-160537500D03*
X64300000Y-158337500D03*
X62700000Y-158337500D03*
X62700000Y-160537500D03*
%TD*%
D77*
%TO.C,IC2*%
X57500000Y-189000000D03*
X58770000Y-189000000D03*
X60040000Y-189000000D03*
X61310000Y-189000000D03*
X62580000Y-189000000D03*
X63850000Y-189000000D03*
X65120000Y-189000000D03*
X66390000Y-189000000D03*
X67660000Y-189000000D03*
X68930000Y-189000000D03*
X70200000Y-189000000D03*
X71470000Y-189000000D03*
X72740000Y-189000000D03*
X74010000Y-189000000D03*
X74010000Y-171500000D03*
X72740000Y-171500000D03*
X71470000Y-171500000D03*
X70200000Y-171500000D03*
X68930000Y-171500000D03*
X67660000Y-171500000D03*
X66390000Y-171500000D03*
X65120000Y-171500000D03*
X63850000Y-171500000D03*
X62580000Y-171500000D03*
X61310000Y-171500000D03*
X60040000Y-171500000D03*
X58770000Y-171500000D03*
X57500000Y-171500000D03*
D78*
X63220000Y-181755000D03*
X61970000Y-183005000D03*
X63220000Y-183005000D03*
X64470000Y-183005000D03*
X64470000Y-181755000D03*
X64470000Y-180505000D03*
X63220000Y-180505000D03*
X61970000Y-180505000D03*
X61970000Y-181755000D03*
%TD*%
D39*
%TO.C,D8*%
X95419250Y-114610000D03*
X95419250Y-116510000D03*
X97294250Y-115560000D03*
%TD*%
%TO.C,D17*%
X81112500Y-79744000D03*
X81112500Y-81644000D03*
X82987500Y-80694000D03*
%TD*%
D25*
%TO.C,C60*%
X120900000Y-145900000D03*
X120900000Y-147625000D03*
%TD*%
D11*
%TO.C,R54*%
X87137500Y-86644000D03*
X88962500Y-86644000D03*
%TD*%
D14*
%TO.C,R74*%
X88950000Y-79144000D03*
X87125000Y-79144000D03*
%TD*%
D26*
%TO.C,C19*%
X99800000Y-174700000D03*
X101525000Y-174700000D03*
%TD*%
%TO.C,C48*%
X83925000Y-100094000D03*
X85650000Y-100094000D03*
%TD*%
D27*
%TO.C,D20*%
X143200000Y-129075000D03*
X143200000Y-130825000D03*
%TD*%
D40*
%TO.C,IC1*%
X120475000Y-94000000D03*
X120475000Y-94500000D03*
X120475000Y-95000000D03*
X120475000Y-95500000D03*
X120475000Y-96000000D03*
X120475000Y-96500000D03*
X120475000Y-97000000D03*
X120475000Y-97500000D03*
X125875000Y-97500000D03*
X125875000Y-97000000D03*
X125875000Y-96500000D03*
X125875000Y-96000000D03*
X125875000Y-95500000D03*
X125875000Y-95000000D03*
X125875000Y-94500000D03*
X125875000Y-94000000D03*
D41*
X123175000Y-95750000D03*
%TD*%
D26*
%TO.C,C15*%
X104737500Y-146600000D03*
X106462500Y-146600000D03*
%TD*%
D11*
%TO.C,R33*%
X113662500Y-90900000D03*
X115487500Y-90900000D03*
%TD*%
D79*
%TO.C,J10*%
X107960000Y-186950000D03*
X107960000Y-183050000D03*
X109230000Y-186950000D03*
X109230000Y-183050000D03*
X110500000Y-186950000D03*
X110500000Y-183050000D03*
X111770000Y-186950000D03*
X111770000Y-183050000D03*
X113040000Y-186950000D03*
X113040000Y-183050000D03*
%TD*%
D25*
%TO.C,C61*%
X144100000Y-145937500D03*
X144100000Y-147662500D03*
%TD*%
D14*
%TO.C,R86*%
X99292126Y-80050000D03*
X97467126Y-80050000D03*
%TD*%
D26*
%TO.C,C76*%
X142231250Y-111240000D03*
X143956250Y-111240000D03*
%TD*%
D36*
%TO.C,TP11*%
X120600000Y-196550000D03*
%TD*%
D39*
%TO.C,D18*%
X81112500Y-88794000D03*
X81112500Y-90694000D03*
X82987500Y-89744000D03*
%TD*%
D25*
%TO.C,C10*%
X71300000Y-162237500D03*
X71300000Y-163962500D03*
%TD*%
%TO.C,C55*%
X58800000Y-191537500D03*
X58800000Y-193262500D03*
%TD*%
D23*
%TO.C,S1*%
X101184454Y-88270156D03*
X101184454Y-89540156D03*
X101184454Y-90810156D03*
X101184454Y-92080156D03*
X106608454Y-92080156D03*
X106608454Y-90810156D03*
X106608454Y-89540156D03*
X106608454Y-88270156D03*
D24*
X103896454Y-90175156D03*
%TD*%
D38*
%TO.C,C71*%
X86700000Y-191975000D03*
X86700000Y-190425000D03*
%TD*%
D36*
%TO.C,TP16*%
X124350000Y-192800000D03*
%TD*%
D80*
%TO.C,L1*%
X100025000Y-143418750D03*
X97725000Y-143418750D03*
%TD*%
D11*
%TO.C,R48*%
X87225000Y-109094000D03*
X89050000Y-109094000D03*
%TD*%
D14*
%TO.C,R55*%
X85662500Y-88144000D03*
X83837500Y-88144000D03*
%TD*%
D10*
%TO.C,R115*%
X131850000Y-114887500D03*
X131850000Y-116712500D03*
%TD*%
D14*
%TO.C,R30*%
X120387500Y-99200000D03*
X118562500Y-99200000D03*
%TD*%
D10*
%TO.C,R121*%
X122150000Y-104450000D03*
X122150000Y-106275000D03*
%TD*%
D14*
%TO.C,R17*%
X89000000Y-106094000D03*
X87175000Y-106094000D03*
%TD*%
D13*
%TO.C,C29*%
X113010000Y-161630000D03*
X113010000Y-159905000D03*
%TD*%
D10*
%TO.C,R109*%
X101500000Y-190487500D03*
X101500000Y-192312500D03*
%TD*%
D11*
%TO.C,R64*%
X87137500Y-91144000D03*
X88962500Y-91144000D03*
%TD*%
D14*
%TO.C,R21*%
X99308954Y-89825156D03*
X97483954Y-89825156D03*
%TD*%
D81*
%TO.C,D25*%
X145986000Y-80450000D03*
D82*
X143700000Y-87000000D03*
D81*
X141414000Y-80450000D03*
%TD*%
D10*
%TO.C,R124*%
X80900000Y-168887500D03*
X80900000Y-170712500D03*
%TD*%
D83*
%TO.C,L3*%
X138200000Y-120219000D03*
X138200000Y-122589000D03*
%TD*%
D10*
%TO.C,R79*%
X55650000Y-159137500D03*
X55650000Y-160962500D03*
%TD*%
D26*
%TO.C,C26*%
X92237500Y-173200000D03*
X93962500Y-173200000D03*
%TD*%
%TO.C,C8*%
X62700000Y-155837500D03*
X64425000Y-155837500D03*
%TD*%
D39*
%TO.C,D11*%
X81187500Y-97694000D03*
X81187500Y-99594000D03*
X83062500Y-98644000D03*
%TD*%
D14*
%TO.C,R88*%
X99279626Y-78450000D03*
X97454626Y-78450000D03*
%TD*%
D52*
%TO.C,U4*%
X90400000Y-182760000D03*
X90400000Y-184030000D03*
X90400000Y-185300000D03*
X90400000Y-186570000D03*
X95350000Y-186570000D03*
X95350000Y-185300000D03*
X95350000Y-184030000D03*
X95350000Y-182760000D03*
%TD*%
D16*
%TO.C,R62*%
X67800000Y-193325000D03*
X67800000Y-191500000D03*
%TD*%
D10*
%TO.C,R126*%
X113500000Y-148287500D03*
X113500000Y-150112500D03*
%TD*%
D11*
%TO.C,R82*%
X87175000Y-113594000D03*
X89000000Y-113594000D03*
%TD*%
D39*
%TO.C,D21*%
X81162500Y-111194000D03*
X81162500Y-113094000D03*
X83037500Y-112144000D03*
%TD*%
D14*
%TO.C,R9*%
X75750000Y-140837500D03*
X73925000Y-140837500D03*
%TD*%
%TO.C,R113*%
X146306250Y-99700000D03*
X144481250Y-99700000D03*
%TD*%
D38*
%TO.C,C66*%
X86725000Y-185515000D03*
X86725000Y-183965000D03*
%TD*%
D32*
%TO.C,H4*%
X54500000Y-195500000D03*
%TD*%
D10*
%TO.C,R4*%
X57125000Y-151025000D03*
X57125000Y-152850000D03*
%TD*%
D36*
%TO.C,TP17*%
X124350000Y-196550000D03*
%TD*%
D10*
%TO.C,R1*%
X124450000Y-89637500D03*
X124450000Y-91462500D03*
%TD*%
D84*
%TO.C,Y2*%
X100700000Y-137650000D03*
X103200000Y-137650000D03*
%TD*%
D16*
%TO.C,R125*%
X113500000Y-155012500D03*
X113500000Y-153187500D03*
%TD*%
D14*
%TO.C,R110*%
X146306250Y-104400000D03*
X144481250Y-104400000D03*
%TD*%
%TO.C,R78*%
X78925000Y-160650000D03*
X77100000Y-160650000D03*
%TD*%
%TO.C,R19*%
X85687500Y-106094000D03*
X83862500Y-106094000D03*
%TD*%
D36*
%TO.C,TP4*%
X77200000Y-82500000D03*
%TD*%
D85*
%TO.C,J8*%
X57300000Y-109200000D03*
X57700000Y-108100000D03*
X57300000Y-107000000D03*
X57100000Y-105900000D03*
X57300000Y-104800000D03*
X57100000Y-103700000D03*
X57300000Y-102600000D03*
X57300000Y-101500000D03*
D86*
X68530000Y-103710000D03*
D87*
X54010000Y-113870000D03*
X55010000Y-100720000D03*
D65*
X68160000Y-102260000D03*
D88*
X68160000Y-108010000D03*
%TD*%
D16*
%TO.C,R71*%
X61100000Y-169000000D03*
X61100000Y-167175000D03*
%TD*%
D89*
%TO.C,FB1*%
X75700000Y-145237500D03*
X73950000Y-145237500D03*
%TD*%
D14*
%TO.C,R106*%
X99286756Y-103080738D03*
X97461756Y-103080738D03*
%TD*%
D36*
%TO.C,TP18*%
X115500000Y-157600000D03*
%TD*%
D16*
%TO.C,R61*%
X71200000Y-169012500D03*
X71200000Y-167187500D03*
%TD*%
D36*
%TO.C,TP15*%
X128100000Y-196550000D03*
%TD*%
D90*
%TO.C,C83*%
X141600000Y-122562500D03*
X141600000Y-119237500D03*
%TD*%
D10*
%TO.C,R76*%
X140800000Y-129087500D03*
X140800000Y-130912500D03*
%TD*%
D14*
%TO.C,R96*%
X120487500Y-78850000D03*
X118662500Y-78850000D03*
%TD*%
D10*
%TO.C,R3*%
X58625000Y-151025000D03*
X58625000Y-152850000D03*
%TD*%
D39*
%TO.C,D24*%
X95431750Y-119110000D03*
X95431750Y-121010000D03*
X97306750Y-120060000D03*
%TD*%
D25*
%TO.C,C25*%
X85400000Y-168975000D03*
X85400000Y-170700000D03*
%TD*%
D32*
%TO.C,H2*%
X54500000Y-54500000D03*
%TD*%
D35*
%TO.C,C4*%
X69162500Y-154237500D03*
X67437500Y-154237500D03*
%TD*%
D14*
%TO.C,R83*%
X85700000Y-115094000D03*
X83875000Y-115094000D03*
%TD*%
D39*
%TO.C,D14*%
X81187500Y-106744000D03*
X81187500Y-108644000D03*
X83062500Y-107694000D03*
%TD*%
D26*
%TO.C,C24*%
X94075000Y-141081250D03*
X95800000Y-141081250D03*
%TD*%
D12*
%TO.C,C97*%
X70600000Y-89600000D03*
X72150000Y-89600000D03*
%TD*%
D13*
%TO.C,C91*%
X98400000Y-137612500D03*
X98400000Y-135887500D03*
%TD*%
D10*
%TO.C,R10*%
X58650000Y-159137500D03*
X58650000Y-160962500D03*
%TD*%
D16*
%TO.C,R60*%
X63300000Y-193325000D03*
X63300000Y-191500000D03*
%TD*%
D11*
%TO.C,R89*%
X97467126Y-83250000D03*
X99292126Y-83250000D03*
%TD*%
D25*
%TO.C,C75*%
X141093750Y-105637500D03*
X141093750Y-107362500D03*
%TD*%
D36*
%TO.C,TP2*%
X136500000Y-95200000D03*
%TD*%
D14*
%TO.C,R56*%
X88950000Y-83644000D03*
X87125000Y-83644000D03*
%TD*%
D25*
%TO.C,C11*%
X69800000Y-162237500D03*
X69800000Y-163962500D03*
%TD*%
D13*
%TO.C,C46*%
X72300000Y-109800000D03*
X72300000Y-108075000D03*
%TD*%
D26*
%TO.C,C34*%
X97750000Y-141818750D03*
X99475000Y-141818750D03*
%TD*%
D45*
%TO.C,JP5*%
X109985000Y-179206300D03*
D46*
X111285000Y-179206300D03*
%TD*%
D39*
%TO.C,D9*%
X103731750Y-119110000D03*
X103731750Y-121010000D03*
X105606750Y-120060000D03*
%TD*%
D26*
%TO.C,C65*%
X106494250Y-117010000D03*
X108219250Y-117010000D03*
%TD*%
D35*
%TO.C,C32*%
X99462500Y-145018750D03*
X97737500Y-145018750D03*
%TD*%
D26*
%TO.C,C14*%
X104737500Y-145100000D03*
X106462500Y-145100000D03*
%TD*%
D13*
%TO.C,C95*%
X127950000Y-130862500D03*
X127950000Y-129137500D03*
%TD*%
D31*
%TO.C,IC5*%
X99750000Y-192350000D03*
X99750000Y-190450000D03*
X97650000Y-191400000D03*
%TD*%
D11*
%TO.C,R93*%
X97459454Y-99660077D03*
X99284454Y-99660077D03*
%TD*%
D39*
%TO.C,D19*%
X81112500Y-75244000D03*
X81112500Y-77144000D03*
X82987500Y-76194000D03*
%TD*%
D16*
%TO.C,R116*%
X138250000Y-116712500D03*
X138250000Y-114887500D03*
%TD*%
D44*
%TO.C,D7*%
X112937500Y-95800000D03*
X116237500Y-95800000D03*
%TD*%
D14*
%TO.C,R46*%
X94025000Y-174700000D03*
X92200000Y-174700000D03*
%TD*%
D13*
%TO.C,C85*%
X146100000Y-121762500D03*
X146100000Y-120037500D03*
%TD*%
D14*
%TO.C,R100*%
X120500000Y-85750000D03*
X118675000Y-85750000D03*
%TD*%
D25*
%TO.C,C9*%
X66800000Y-159775000D03*
X66800000Y-161500000D03*
%TD*%
D14*
%TO.C,R49*%
X85687500Y-110594000D03*
X83862500Y-110594000D03*
%TD*%
D58*
%TO.C,C74*%
X141056250Y-101700000D03*
X137931250Y-101700000D03*
%TD*%
D25*
%TO.C,C58*%
X145600000Y-145887500D03*
X145600000Y-147612500D03*
%TD*%
D35*
%TO.C,C23*%
X84487500Y-160737500D03*
X82762500Y-160737500D03*
%TD*%
D13*
%TO.C,C80*%
X133450000Y-116662500D03*
X133450000Y-114937500D03*
%TD*%
D14*
%TO.C,R35*%
X108269250Y-123010000D03*
X106444250Y-123010000D03*
%TD*%
D35*
%TO.C,C3*%
X75687500Y-151437500D03*
X73962500Y-151437500D03*
%TD*%
D90*
%TO.C,C84*%
X144100000Y-122562500D03*
X144100000Y-119237500D03*
%TD*%
D14*
%TO.C,R91*%
X99296954Y-98060077D03*
X97471954Y-98060077D03*
%TD*%
%TO.C,R15*%
X78937500Y-159137500D03*
X77112500Y-159137500D03*
%TD*%
D16*
%TO.C,R70*%
X62600000Y-169000000D03*
X62600000Y-167175000D03*
%TD*%
D13*
%TO.C,C81*%
X130200000Y-121087500D03*
X130200000Y-119362500D03*
%TD*%
D14*
%TO.C,R92*%
X99296954Y-94860077D03*
X97471954Y-94860077D03*
%TD*%
D11*
%TO.C,R75*%
X87125000Y-77644000D03*
X88950000Y-77644000D03*
%TD*%
%TO.C,R107*%
X97461756Y-107880738D03*
X99286756Y-107880738D03*
%TD*%
D14*
%TO.C,R90*%
X99296954Y-96460077D03*
X97471954Y-96460077D03*
%TD*%
%TO.C,R14*%
X78931302Y-162137500D03*
X77106302Y-162137500D03*
%TD*%
D26*
%TO.C,C77*%
X144531250Y-101300000D03*
X146256250Y-101300000D03*
%TD*%
D36*
%TO.C,TP3*%
X133200000Y-87300000D03*
%TD*%
D14*
%TO.C,R123*%
X95812500Y-137200000D03*
X93987500Y-137200000D03*
%TD*%
D25*
%TO.C,C82*%
X136650000Y-114937500D03*
X136650000Y-116662500D03*
%TD*%
D16*
%TO.C,R80*%
X144750000Y-130862500D03*
X144750000Y-129037500D03*
%TD*%
D11*
%TO.C,R101*%
X113737500Y-85650000D03*
X115562500Y-85650000D03*
%TD*%
D10*
%TO.C,R68*%
X72700000Y-167187500D03*
X72700000Y-169012500D03*
%TD*%
D91*
%TO.C,IC7*%
X134000000Y-121225000D03*
D92*
X133238000Y-120725000D03*
X133238000Y-120225000D03*
X133238000Y-119725000D03*
D91*
X134000000Y-119225000D03*
D93*
X133238000Y-118900000D03*
D91*
X132476000Y-119225000D03*
X132476000Y-121225000D03*
D93*
X133238000Y-121550000D03*
D94*
X133788000Y-121613000D03*
X133788000Y-118837000D03*
X132688000Y-118837000D03*
X132688000Y-121613000D03*
%TD*%
D36*
%TO.C,TP20*%
X113350000Y-196550000D03*
%TD*%
D14*
%TO.C,R25*%
X120400000Y-100700000D03*
X118575000Y-100700000D03*
%TD*%
D15*
%TO.C,D4*%
X57100000Y-157550000D03*
X57100000Y-155800000D03*
%TD*%
D35*
%TO.C,C21*%
X84487500Y-153737500D03*
X82762500Y-153737500D03*
%TD*%
D11*
%TO.C,R114*%
X133237500Y-123700000D03*
X135062500Y-123700000D03*
%TD*%
D10*
%TO.C,R85*%
X101425000Y-183802500D03*
X101425000Y-185627500D03*
%TD*%
D95*
%TO.C,IC6*%
X142493750Y-108790000D03*
X142993750Y-108790000D03*
X143493750Y-108790000D03*
X143993750Y-108790000D03*
X144493750Y-108790000D03*
X144993750Y-108790000D03*
X144993750Y-105890000D03*
X144493750Y-105890000D03*
X143993750Y-105890000D03*
X143493750Y-105890000D03*
X142993750Y-105890000D03*
X142493750Y-105890000D03*
D96*
X143743750Y-107340000D03*
%TD*%
D11*
%TO.C,R57*%
X87125000Y-82144000D03*
X88950000Y-82144000D03*
%TD*%
D35*
%TO.C,C6*%
X64400000Y-163037500D03*
X62675000Y-163037500D03*
%TD*%
D16*
%TO.C,R118*%
X76569500Y-79222500D03*
X76569500Y-77397500D03*
%TD*%
D13*
%TO.C,C1*%
X113085000Y-179668800D03*
X113085000Y-177943800D03*
%TD*%
D16*
%TO.C,R69*%
X58700000Y-169000000D03*
X58700000Y-167175000D03*
%TD*%
D14*
%TO.C,R104*%
X99286756Y-104680738D03*
X97461756Y-104680738D03*
%TD*%
D27*
%TO.C,D26*%
X79400000Y-168925000D03*
X79400000Y-170675000D03*
%TD*%
D36*
%TO.C,TP1*%
X141100000Y-95200000D03*
%TD*%
D14*
%TO.C,R95*%
X120500000Y-87250000D03*
X118675000Y-87250000D03*
%TD*%
D38*
%TO.C,C67*%
X88325000Y-185490000D03*
X88325000Y-183940000D03*
%TD*%
M02*
