%TF.GenerationSoftware,KiCad,Pcbnew,9.0.7*%
%TF.CreationDate,2026-03-19T17:18:43+00:00*%
%TF.ProjectId,NCU,4e43552e-6b69-4636-9164-5f7063625858,rev?*%
%TF.SameCoordinates,Original*%
%TF.FileFunction,Profile,NP*%
%FSLAX46Y46*%
G04 Gerber Fmt 4.6, Leading zero omitted, Abs format (unit mm)*
G04 Created by KiCad (PCBNEW 9.0.7) date 2026-03-19 17:18:43*
%MOMM*%
%LPD*%
G01*
G04 APERTURE LIST*
%TA.AperFunction,Profile*%
%ADD10C,0.050000*%
%TD*%
G04 APERTURE END LIST*
D10*
X51000000Y-191000000D02*
X55000000Y-191000000D01*
X54500000Y-200000000D02*
X145500000Y-200000000D01*
X51500000Y-80007090D02*
G75*
G02*
X52499985Y-81000000I0J-1000010D01*
G01*
X50000000Y-192000000D02*
G75*
G02*
X51000000Y-191000000I1000000J0D01*
G01*
X54500000Y-50000000D02*
X145500000Y-50000000D01*
X150000000Y-195500000D02*
G75*
G02*
X145500000Y-200000000I-4500000J0D01*
G01*
X56000000Y-171000000D02*
X56000000Y-190000000D01*
X51000000Y-170000000D02*
X55000000Y-170000000D01*
X150000000Y-54500000D02*
X150000000Y-195500000D01*
X56000000Y-190000000D02*
G75*
G02*
X55000000Y-191000000I-1000000J0D01*
G01*
X51000000Y-80007107D02*
X51500000Y-80007107D01*
X50000000Y-192000000D02*
X50000000Y-195500000D01*
X55000000Y-170000000D02*
G75*
G02*
X56000000Y-171000000I0J-1000000D01*
G01*
X54500000Y-200000000D02*
G75*
G02*
X50000000Y-195500000I0J4500000D01*
G01*
X50000000Y-54500000D02*
X50000000Y-79003359D01*
X52500000Y-81000000D02*
X52500000Y-136000000D01*
X50000000Y-54500000D02*
G75*
G02*
X54500000Y-50000000I4500000J0D01*
G01*
X52500000Y-136000000D02*
G75*
G02*
X51500000Y-137000000I-1000000J0D01*
G01*
X50000000Y-138000000D02*
G75*
G02*
X51000000Y-137000000I1000000J0D01*
G01*
X145500000Y-50000000D02*
G75*
G02*
X150000000Y-54500000I0J-4500000D01*
G01*
X51000000Y-80007107D02*
G75*
G02*
X49999993Y-79007107I0J1000007D01*
G01*
X50000000Y-138000000D02*
X50000000Y-169000000D01*
X51000000Y-137000000D02*
X51492893Y-137000000D01*
X51000000Y-170000000D02*
G75*
G02*
X50000000Y-169000000I0J1000000D01*
G01*
M02*
